<?xml version="1.0" encoding="UTF-8"?>
<svg version="1.1" xmlns="http://www.w3.org/2000/svg" width="500" height="500">
<path d="M0 0 C0.92473618 0.00276443 1.84947235 0.00552887 2.80223083 0.00837708 C13.91553642 0.08878078 25.00917444 0.56087958 36.10620117 1.14379883 C38.50543208 1.26559808 40.90522823 1.37667004 43.30541992 1.4777832 C46.8223507 1.62624584 50.33647566 1.80556067 53.8515625 1.9921875 C54.92434952 2.03200241 55.99713654 2.07181732 57.10243225 2.11283875 C64.44718988 2.55429068 64.44718988 2.55429068 67.61376953 5.38964844 C68.34829346 6.74944824 68.34829346 6.74944824 69.09765625 8.13671875 C69.85816284 9.36853882 69.85816284 9.36853882 70.6340332 10.62524414 C71.11316162 11.48625732 71.59229004 12.34727051 72.0859375 13.234375 C72.6236377 14.1944043 73.16133789 15.15443359 73.71533203 16.14355469 C74.55427002 17.6561084 74.55427002 17.6561084 75.41015625 19.19921875 C76.58016625 21.2893777 77.75073273 23.37922526 78.921875 25.46875 C79.47665527 26.46084473 80.03143555 27.45293945 80.60302734 28.47509766 C82.79578389 32.37993788 85.0513853 36.24440926 87.3203125 40.10546875 C89.61720333 44.02280344 91.88766115 47.95519743 94.16015625 51.88671875 C96.13812355 55.30408091 98.11758041 58.72057792 100.09765625 62.13671875 C100.90082275 63.52262207 100.90082275 63.52262207 101.72021484 64.93652344 C109.02133139 77.52406666 116.40193109 90.05803498 123.94824219 102.50048828 C127.35372239 108.13724212 130.60418626 113.82813571 133.73046875 119.62426758 C135.60699942 123.07272777 137.58997648 126.45098632 139.59765625 129.82421875 C140.4547869 131.27452699 141.31153346 132.72506227 142.16796875 134.17578125 C142.62977539 134.95727539 143.09158203 135.73876953 143.56738281 136.54394531 C146.54559051 141.58998324 149.51139196 146.6432228 152.47265625 151.69921875 C153.36500977 153.2155188 153.36500977 153.2155188 154.27539062 154.76245117 C160.34695749 165.13873137 164.09210085 173.12982937 164.65185547 185.19458008 C164.69396589 186.07606877 164.73607632 186.95755747 164.77946281 187.86575794 C165.19827484 197.31453852 165.24304453 206.75452567 165.23046875 216.2109375 C165.23114482 218.04083774 165.23211736 219.87073788 165.23336792 221.70063782 C165.23482355 225.4844348 165.23275555 229.2682078 165.22802734 233.05200195 C165.22225287 237.90977412 165.22567034 242.76749195 165.23159981 247.62526226 C165.23519765 251.38001422 165.23407179 255.13475305 165.23147202 258.88950539 C165.23080458 260.68334777 165.23162479 262.47719134 165.23395157 264.27103233 C165.23647358 266.7545329 165.23264757 269.23794187 165.22705078 271.72143555 C165.22907501 272.46253067 165.23109924 273.20362579 165.23318481 273.96717834 C165.21193561 279.02243939 165.21193561 279.02243939 164.09765625 280.13671875 C162.08359496 280.24132593 160.06583714 280.27527703 158.04907227 280.28198242 C156.7542543 280.28836227 155.45943634 280.29474213 154.12538147 280.30131531 C152.70077552 280.30284386 151.27616908 280.30395789 149.8515625 280.3046875 C148.40046658 280.30789837 146.94937098 280.31126231 145.49827576 280.31477356 C142.45253753 280.32077121 139.4068277 280.32261282 136.36108398 280.32202148 C132.45229768 280.32191984 128.54369293 280.33557184 124.63494968 280.35279369 C121.63672545 280.36389546 118.63854535 280.36594126 115.64030266 280.36541176 C114.19895744 280.36659464 112.75761117 280.37103361 111.31628609 280.37874413 C109.30275929 280.38850661 107.28917957 280.38441146 105.27563477 280.37963867 C103.55474388 280.3817762 103.55474388 280.3817762 101.79908752 280.38395691 C99.09765625 280.13671875 99.09765625 280.13671875 97.09765625 278.13671875 C96.90099054 275.45934039 96.82808952 272.88401751 96.84228516 270.20556641 C96.8386647 269.3857428 96.83504425 268.56591919 96.83131409 267.72125244 C96.82440821 265.93591044 96.82191687 264.15054727 96.82326126 262.36519241 C96.82422569 259.53037531 96.81129003 256.69593833 96.79428101 253.86117554 C96.74801176 245.79924566 96.72344392 237.73735094 96.71679688 229.67529297 C96.71175159 224.74502806 96.68733852 219.81515343 96.65147018 214.88502121 C96.64173084 213.01377086 96.63930788 211.14246637 96.64464188 209.27119827 C96.68447342 194.59477044 94.59574774 183.4168881 86.84765625 170.69921875 C86.36240479 169.88211426 85.87715332 169.06500977 85.37719727 168.22314453 C83.96419207 165.8525058 82.53525429 163.4925078 81.09765625 161.13671875 C80.72560059 160.52650879 80.35354492 159.91629883 79.97021484 159.28759766 C78.36303944 156.66040983 76.74292068 154.04152302 75.1171875 151.42578125 C71.44005653 145.43710761 67.9113809 139.36054229 64.36230469 133.29541016 C63.15475424 131.23418215 61.94354172 129.17516933 60.73046875 127.1171875 C55.28441527 117.8778853 49.87737384 108.61625555 44.47924805 99.34887695 C40.56616256 92.63718901 36.62282537 85.9442254 32.66015625 79.26171875 C27.85168771 71.14918126 23.11540815 62.99702646 18.41015625 54.82421875 C12.18239026 43.99884024 12.18239026 43.99884024 5.91015625 33.19921875 C5.52915771 32.54622803 5.14815918 31.8932373 4.75561523 31.22045898 C2.52732406 27.44140076 0.20871646 23.73482855 -2.1796875 20.0546875 C-2.73567627 19.19415771 -3.29166504 18.33362793 -3.86450195 17.44702148 C-4.94752792 15.77946997 -6.04065288 14.11842038 -7.14526367 12.46508789 C-7.63486572 11.71219482 -8.12446777 10.95930176 -8.62890625 10.18359375 C-9.06799316 9.52198242 -9.50708008 8.86037109 -9.95947266 8.17871094 C-11.10217002 5.70395155 -11.07274612 3.83153553 -10.90234375 1.13671875 C-7.526266 -0.55132013 -3.71147041 -0.01661246 0 0 Z " fill="#CDCDCD" transform="translate(81.90234375,111.86328125)"/>
<path d="M0 0 C0.82860157 0.00285318 1.65720314 0.00570637 2.51091385 0.00864601 C12.22896689 0.08309846 21.91912 0.60588658 31.62011719 1.14990234 C33.60050634 1.2575544 35.58091454 1.36485649 37.56134033 1.47183228 C41.68268155 1.69557336 45.80380817 1.92283141 49.92480469 2.15283203 C55.13545688 2.44346238 60.34649808 2.72624112 65.55772018 3.00644493 C69.64035688 3.22669349 73.72278098 3.45070186 77.80515289 3.67580032 C79.72310165 3.78122487 81.64110409 3.8856787 83.55916595 3.98902512 C97.55088471 4.74638838 111.4954803 5.83822308 125.44824219 7.12646484 C124.71847794 11.19086512 123.54441737 14.12571688 121.49902344 17.73193359 C120.89767578 18.79863281 120.29632813 19.86533203 119.67675781 20.96435547 C119.04447266 22.06972656 118.4121875 23.17509766 117.76074219 24.31396484 C117.14779297 25.4 116.53484375 26.48603516 115.90332031 27.60498047 C113.08740724 32.57687364 110.2260045 37.50140773 107.21386719 42.35693359 C105.3250606 45.45285106 103.89537008 48.40240049 102.69433594 51.82177734 C100.81092184 56.74472874 98.88506011 61.04862745 94.44824219 64.12646484 C85.07722621 66.55186843 74.95881791 65.02482241 65.44824219 64.12646484 C63.15443365 63.97377432 60.86117328 63.84865143 58.56542969 63.72998047 C57.23428066 63.66081292 55.90350969 63.58395253 54.57324219 63.49951172 C47.56741952 63.066495 40.55564344 62.87622378 33.5380249 62.78442383 C32.16500763 62.7627693 30.7920959 62.73227732 29.41949463 62.69213867 C19.77130684 62.42058421 12.32087764 63.14242357 4.78149414 69.54101562 C0.08186777 74.50992802 -3.02484267 80.82637211 -6.32891846 86.76571655 C-7.73120927 89.2859629 -9.15077117 91.7963239 -10.56958008 94.30729675 C-11.26978798 95.54674929 -11.96917943 96.78666344 -12.66772461 98.02705383 C-17.84559803 107.21585575 -23.21884143 116.24486499 -29.16113281 124.96240234 C-30.73673141 127.41431702 -32.1140415 129.93198174 -33.48925781 132.50146484 C-35.62505833 136.44962872 -37.7723714 140.3840224 -40.05175781 144.25146484 C-40.57769531 145.16154297 -41.10363281 146.07162109 -41.64550781 147.00927734 C-43.55175781 149.12646484 -43.55175781 149.12646484 -46.45800781 150.24365234 C-49.55175781 150.12646484 -49.55175781 150.12646484 -52.18847656 148.09521484 C-54.61366562 145.04869636 -56.50213462 142.04493099 -58.36425781 138.62646484 C-59.05764747 137.37279525 -59.75300721 136.12021354 -60.45019531 134.86865234 C-60.79920898 134.24055664 -61.14822266 133.61246094 -61.5078125 132.96533203 C-63.09010903 130.17818108 -64.7889865 127.46783454 -66.48925781 124.75146484 C-70.34648135 118.54042379 -73.9519453 112.20797356 -77.48925781 105.81005859 C-78.71489613 103.59703794 -79.97342099 101.44220339 -81.30175781 99.28662109 C-81.77613281 98.51189453 -82.25050781 97.73716797 -82.73925781 96.93896484 C-83.1453125 96.30603516 -83.55136719 95.67310547 -83.96972656 95.02099609 C-84.85239507 92.14788047 -83.89319451 90.77454593 -82.55175781 88.12646484 C-81.29427146 85.88780079 -80.01297876 83.69177425 -78.67675781 81.50146484 C-78.28456055 80.85250244 -77.89236328 80.20354004 -77.48828125 79.53491211 C-73.83909462 73.5287819 -70.05845035 67.60739669 -66.28344727 61.67993164 C-62.34715535 55.46541999 -58.58392072 49.160072 -54.86425781 42.81396484 C-33.91174721 7.16720495 -33.91174721 7.16720495 -16.82519531 1.70458984 C-11.1774161 0.26838482 -5.78962815 -0.03386245 0 0 Z " fill="#EDEDED" transform="translate(309.5517578125,124.87353515625)"/>
<path d="M0 0 C1.63542878 1.63542878 1.12949505 3.48372564 1.13371277 5.74029541 C1.14011024 7.27920944 1.14011024 7.27920944 1.14663696 8.84921265 C1.14595718 10.55242172 1.14595718 10.55242172 1.14526367 12.29003906 C1.14862228 13.47874603 1.1519809 14.667453 1.15544128 15.8921814 C1.16334161 19.16562779 1.16662079 22.43903622 1.16725707 25.71249104 C1.16796729 27.76141189 1.1701013 29.81032609 1.17275429 31.8592453 C1.18202373 39.01944907 1.1860881 46.17963418 1.18530273 53.33984375 C1.18470486 59.99078807 1.19519511 66.64165052 1.2110464 73.29257417 C1.22419153 79.01419777 1.22948357 84.7357949 1.22884732 90.45743346 C1.22859392 93.86891152 1.23135545 97.2803172 1.24202538 100.69178009 C1.2518985 104.51366282 1.24891732 108.33534003 1.24291992 112.15722656 C1.24853943 113.26840851 1.25415894 114.37959045 1.25994873 115.52444458 C1.18066223 135.55699322 -3.94278755 153.98410444 -17.80859375 168.90234375 C-28.40874232 179.04901003 -42.16427442 185.42845154 -56.875 185.1875 C-57.64585937 185.18685547 -58.41671875 185.18621094 -59.2109375 185.18554688 C-64.8592017 185.1407983 -64.8592017 185.1407983 -66 184 C-66.11636347 181.47204745 -66.16799728 178.9710431 -66.17700195 176.44189453 C-66.18357315 175.64987137 -66.19014435 174.85784821 -66.19691467 174.04182434 C-66.21671295 171.40548616 -66.22833086 168.7692054 -66.23828125 166.1328125 C-66.24235678 165.23175655 -66.2464323 164.33070061 -66.25063133 163.40233994 C-66.27152981 158.6240232 -66.28580945 153.84573542 -66.29516602 149.06738281 C-66.30617807 144.15044893 -66.34050624 139.2339742 -66.38033772 134.31720161 C-66.40661343 130.523399 -66.41486802 126.72970331 -66.41844749 122.93581772 C-66.42329311 121.12508962 -66.43484875 119.31436563 -66.45348549 117.50372696 C-66.59668893 102.6558005 -64.06183352 92.64764913 -56 80 C-55.03019856 78.39491211 -54.06531296 76.78684334 -53.10546875 75.17578125 C-41.64453125 56.07421875 -41.64453125 56.07421875 -40.56079102 54.26806641 C-39.84894413 53.08160031 -39.13719406 51.89507612 -38.42553711 50.70849609 C-36.36411622 47.27172454 -34.30033007 43.83639184 -32.234375 40.40234375 C-26.17182107 30.31915863 -20.1532821 20.21144663 -14.18847656 10.07006836 C-13.66995117 9.18971924 -13.15142578 8.30937012 -12.6171875 7.40234375 C-12.15940918 6.62366943 -11.70163086 5.84499512 -11.22998047 5.04272461 C-7.99169612 -0.33534708 -6.17209445 -1.62423538 0 0 Z " fill="#C0C0C0" transform="translate(334,207)"/>
<path d="M0 0 C1.55825083 0.0899828 3.11651943 0.17965828 4.67480469 0.26904297 C9.51274442 0.54815131 14.35015627 0.8357695 19.1875 1.125 C20.39802032 1.19714722 20.39802032 1.19714722 21.63299561 1.27075195 C31.81850551 1.87792825 42.00332405 2.49582266 52.1875 3.125 C53.17624405 6.21937204 53.34232697 6.80724465 51.84375 9.8828125 C51.1321875 10.99398437 50.420625 12.10515625 49.6875 13.25 C48.84865603 14.588026 48.01296535 15.92803179 47.1796875 17.26953125 C46.70756836 18.0270166 46.23544922 18.78450195 45.74902344 19.56494141 C42.66217895 24.62570614 39.75518092 29.79208663 36.8125 34.9375 C32.30707741 42.77716086 27.76956813 50.59189034 23.0625 58.3125 C22.42562256 59.36111206 22.42562256 59.36111206 21.77587891 60.4309082 C20.60058366 62.34328886 19.40331217 64.23815352 18.1875 66.125 C17.7654126 66.78653076 17.3433252 67.44806152 16.90844727 68.12963867 C13.64271626 73.01306158 13.64271626 73.01306158 9.375 74.0625 C8.323125 74.083125 7.27125 74.10375 6.1875 74.125 C2.08340318 69.04581634 -1.19488469 63.81469579 -4.24609375 58.046875 C-5.86482543 55.02739545 -7.57301005 52.07639834 -9.3125 49.125 C-11.4362045 45.50871359 -13.51108885 41.87952569 -15.5 38.1875 C-19.53394475 30.72087598 -23.78821165 23.37825163 -28.0078125 16.015625 C-28.72372559 14.75975586 -28.72372559 14.75975586 -29.45410156 13.47851562 C-30.30845629 11.99828925 -31.17813041 10.52669569 -32.06933594 9.06835938 C-34.11295546 5.69288227 -34.8125 4.19467642 -34.8125 0.125 C-24.22464161 -3.10986726 -10.96714938 -0.65396067 0 0 Z " fill="#F0F0F0" transform="translate(204.8125,118.875)"/>
<path d="M0 0 C0.89485107 -0.00064453 1.78970215 -0.00128906 2.71166992 -0.00195312 C16.61896224 0.09992332 30.50722563 1.20985246 44.375 2.1875 C44.375 2.5175 44.375 2.8475 44.375 3.1875 C28.31355421 3.57924258 12.38017853 2.37799399 -3.625 1.1875 C-2.97144531 2.18716797 -2.97144531 2.18716797 -2.3046875 3.20703125 C1.29361229 8.77582855 4.63759123 14.39740245 7.76708984 20.24072266 C10.58103251 25.39776609 13.59271141 30.44057923 16.5796814 35.49862671 C22.2980536 45.18414818 27.97474344 54.88682551 33.41796875 64.73046875 C35.47959968 68.37227189 37.62363676 71.95578467 39.78442383 75.53930664 C41.3558274 78.15557903 42.90785652 80.78228095 44.453125 83.4140625 C49.88557472 92.66168716 55.32358953 101.89182454 61.12792969 110.91259766 C63.51477268 114.65847137 65.57978484 118.46669373 67.49731445 122.47436523 C68.56817947 124.56456268 69.95830165 126.32003399 71.375 128.1875 C71.705 129.033125 72.035 129.87875 72.375 130.75 C73.18483207 133.18807881 73.18483207 133.18807881 74.80078125 134.56640625 C76.62257442 136.44244636 77.47065051 138.18959966 78.5625 140.5625 C81.18044263 145.98029668 84.28812084 151.00937416 87.47265625 156.109375 C89.40347077 159.23356769 91.21738291 162.38747871 92.94921875 165.625 C94.13137423 167.74964108 95.36628926 169.80818823 96.64453125 171.875 C97.25566772 172.89146606 97.25566772 172.89146606 97.87915039 173.9284668 C98.68217838 175.2636995 99.50188321 176.58911165 100.34155273 177.90161133 C106.67996373 188.60825857 104.50888911 203.45221535 104.47265625 215.515625 C104.4707873 217.35935426 104.46936565 219.20308403 104.46836853 221.04681396 C104.46458087 225.8602642 104.45478335 230.67368345 104.44366455 235.48712158 C104.43155359 241.28347636 104.42703031 247.07984159 104.42121124 252.87620544 C104.411569 261.6466584 104.39238637 270.4170436 104.375 279.1875 C123.845 279.1875 143.315 279.1875 163.375 279.1875 C163.045 243.5475 162.715 207.9075 162.375 171.1875 C162.705 171.1875 163.035 171.1875 163.375 171.1875 C164.49708238 175.85048113 164.70782978 180.47404372 164.92919922 185.24536133 C164.97130964 186.12685002 165.01342007 187.00833872 165.05680656 187.91653919 C165.47561859 197.36531977 165.52038828 206.80530692 165.5078125 216.26171875 C165.50848857 218.09161899 165.50946111 219.92151913 165.51071167 221.75141907 C165.5121673 225.53521605 165.5100993 229.31898905 165.50537109 233.1027832 C165.49959662 237.96055537 165.50301409 242.8182732 165.50894356 247.67604351 C165.5125414 251.43079547 165.51141554 255.1855343 165.50881577 258.94028664 C165.50814833 260.73412902 165.50896854 262.52797259 165.51129532 264.32181358 C165.51381733 266.80531415 165.50999132 269.28872312 165.50439453 271.7722168 C165.50641876 272.51331192 165.50844299 273.25440704 165.51052856 274.01795959 C165.48927936 279.07322064 165.48927936 279.07322064 164.375 280.1875 C162.36093871 280.29210718 160.34318089 280.32605828 158.32641602 280.33276367 C157.03159805 280.33914352 155.73678009 280.34552338 154.40272522 280.35209656 C152.97811927 280.35362511 151.55351283 280.35473914 150.12890625 280.35546875 C148.67781033 280.35867962 147.22671473 280.36204356 145.77561951 280.36555481 C142.72988128 280.37155246 139.68417145 280.37339407 136.63842773 280.37280273 C132.72964143 280.37270109 128.82103668 280.38635309 124.91229343 280.40357494 C121.9140692 280.41467671 118.9158891 280.41672251 115.91764641 280.41619301 C114.47630119 280.41737589 113.03495492 280.42181486 111.59362984 280.42952538 C109.58010304 280.43928786 107.56652332 280.43519271 105.55297852 280.43041992 C103.83208763 280.43255745 103.83208763 280.43255745 102.07643127 280.43473816 C99.375 280.1875 99.375 280.1875 97.375 278.1875 C97.17833429 275.51012164 97.10543327 272.93479876 97.11962891 270.25634766 C97.11600845 269.43652405 97.112388 268.61670044 97.10865784 267.77203369 C97.10175196 265.98669169 97.09926062 264.20132852 97.10060501 262.41597366 C97.10156944 259.58115656 97.08863378 256.74671958 97.07162476 253.91195679 C97.02535551 245.85002691 97.00078767 237.78813219 96.99414062 229.72607422 C96.98909534 224.79580931 96.96468227 219.86593468 96.92881393 214.93580246 C96.91907459 213.06455211 96.91665163 211.19324762 96.92198563 209.32197952 C96.96181717 194.64555169 94.87309149 183.46766935 87.125 170.75 C86.63974854 169.93289551 86.15449707 169.11579102 85.65454102 168.27392578 C84.24153582 165.90328705 82.81259804 163.54328905 81.375 161.1875 C81.00294434 160.57729004 80.63088867 159.96708008 80.24755859 159.33837891 C78.64038319 156.71119108 77.02026443 154.09230427 75.39453125 151.4765625 C71.71740028 145.48788886 68.18872465 139.41132354 64.63964844 133.34619141 C63.43209799 131.2849634 62.22088547 129.22595058 61.0078125 127.16796875 C55.56175902 117.92866655 50.15471759 108.6670368 44.7565918 99.3996582 C40.84350631 92.68797026 36.90016912 85.99500665 32.9375 79.3125 C28.12903146 71.19996251 23.3927519 63.04780771 18.6875 54.875 C12.45973401 44.04962149 12.45973401 44.04962149 6.1875 33.25 C5.80650146 32.59700928 5.42550293 31.94401855 5.03295898 31.27124023 C2.80466781 27.49218201 0.48606021 23.7856098 -1.90234375 20.10546875 C-2.45833252 19.24493896 -3.01432129 18.38440918 -3.5871582 17.49780273 C-4.67018417 15.83025122 -5.76330913 14.16920163 -6.86791992 12.51586914 C-7.35752197 11.76297607 -7.84712402 11.01008301 -8.3515625 10.234375 C-8.79064941 9.57276367 -9.22973633 8.91115234 -9.68212891 8.22949219 C-10.82482627 5.7547328 -10.79540237 3.88231678 -10.625 1.1875 C-7.31314296 -0.46842852 -3.63942476 -0.00272948 0 0 Z " fill="#494949" transform="translate(81.625,111.8125)"/>
<path d="M0 0 C1.63962506 1.63962506 1.12603837 3.50622217 1.12698364 5.76721191 C1.13121338 7.31479691 1.13121338 7.31479691 1.13552856 8.89364624 C1.13249222 10.60628159 1.13249222 10.60628159 1.12939453 12.35351562 C1.13202301 14.14621384 1.13202301 14.14621384 1.13470459 15.97512817 C1.13836431 19.26484653 1.13748765 22.55450238 1.1343255 25.8442173 C1.13179815 29.28868317 1.13414093 32.73314633 1.13571167 36.1776123 C1.13753422 41.97160319 1.13512687 47.76558136 1.13037109 53.55957031 C1.12494882 60.24238059 1.12667591 66.92516025 1.1321975 73.60796976 C1.13675077 79.34991164 1.13736775 85.09184434 1.13475883 90.83378744 C1.13320556 94.26076349 1.13297571 97.68772521 1.13629532 101.11470032 C1.13884456 104.94693033 1.13494825 108.77910241 1.12939453 112.61132812 C1.13141876 113.73689117 1.13344299 114.86245422 1.13552856 116.02212524 C1.11927684 122.09835362 0.79553459 127.97468548 0 134 C-0.33 134 -0.66 134 -1 134 C-1.33 90.44 -1.66 46.88 -2 2 C-2.66 2 -3.32 2 -4 2 C-4.144375 2.78375 -4.28875 3.5675 -4.4375 4.375 C-5 7 -5 7 -6 9 C-6.66 9 -7.32 9 -8 9 C-8.20625 9.78375 -8.4125 10.5675 -8.625 11.375 C-10.12514493 15.32992755 -12.07325256 18.63021878 -14.2890625 22.21875 C-16.09818279 25.15960307 -17.83406279 28.13608675 -19.5625 31.125 C-21.50879461 34.47552909 -23.47838899 37.79605679 -25.5625 41.0625 C-28.09861638 45.06337006 -30.33495568 49.21203885 -32.5703125 53.38671875 C-36.65981982 60.8618018 -36.65981982 60.8618018 -39 61.8125 C-42.32900706 63.78909794 -42.90405259 67.4298683 -44 71 C-44.99 71 -45.98 71 -47 71 C-47.33 72.32 -47.66 73.64 -48 75 C-48.66 75 -49.32 75 -50 75 C-50.0825 75.680625 -50.165 76.36125 -50.25 77.0625 C-51.47942385 81.87774341 -53.66806882 85.742065 -57.25 89.125 C-59.25830842 90.90505471 -59.25830842 90.90505471 -59.3125 93.6875 C-59.24344314 95.95857126 -59.24344314 95.95857126 -58 97 C-57.90485408 99.70838086 -57.87445068 102.39118513 -57.88647461 105.09985352 C-57.88632858 105.94856018 -57.88618256 106.79726685 -57.8860321 107.67169189 C-57.88673152 110.49078891 -57.89452522 113.30982071 -57.90234375 116.12890625 C-57.90420783 118.07803817 -57.90563178 120.02717055 -57.90663147 121.9763031 C-57.91045745 127.11706832 -57.92028841 132.25780547 -57.93133545 137.39855957 C-57.94154785 142.64005148 -57.94612872 147.8815479 -57.95117188 153.12304688 C-57.96191061 163.41537694 -57.97898799 173.70768614 -58 184 C-57.38866211 183.83701416 -56.77732422 183.67402832 -56.14746094 183.50610352 C-53.77519905 182.94701997 -51.68352885 182.90171281 -49.25 182.9375 C-48.45078125 182.94652344 -47.6515625 182.95554687 -46.828125 182.96484375 C-45.92320312 182.98224609 -45.92320312 182.98224609 -45 183 C-48.88256641 185.58837761 -52.13223217 185.25793118 -56.625 185.1875 C-57.80835938 185.1865332 -57.80835938 185.1865332 -59.015625 185.18554688 C-64.8596388 185.1403612 -64.8596388 185.1403612 -66 184 C-66.11636347 181.47204745 -66.16799728 178.9710431 -66.17700195 176.44189453 C-66.18357315 175.64987137 -66.19014435 174.85784821 -66.19691467 174.04182434 C-66.21671295 171.40548616 -66.22833086 168.7692054 -66.23828125 166.1328125 C-66.24235678 165.23175655 -66.2464323 164.33070061 -66.25063133 163.40233994 C-66.27152981 158.6240232 -66.28580945 153.84573542 -66.29516602 149.06738281 C-66.30617807 144.15044893 -66.34050624 139.2339742 -66.38033772 134.31720161 C-66.40661343 130.523399 -66.41486802 126.72970331 -66.41844749 122.93581772 C-66.42329311 121.12508962 -66.43484875 119.31436563 -66.45348549 117.50372696 C-66.59668893 102.6558005 -64.06183352 92.64764913 -56 80 C-55.03019856 78.39491211 -54.06531296 76.78684334 -53.10546875 75.17578125 C-41.64453125 56.07421875 -41.64453125 56.07421875 -40.56079102 54.26806641 C-39.84894413 53.08160031 -39.13719406 51.89507612 -38.42553711 50.70849609 C-36.36411622 47.27172454 -34.30033007 43.83639184 -32.234375 40.40234375 C-26.17182107 30.31915863 -20.1532821 20.21144663 -14.18847656 10.07006836 C-13.66995117 9.18971924 -13.15142578 8.30937012 -12.6171875 7.40234375 C-12.15940918 6.62366943 -11.70163086 5.84499512 -11.22998047 5.04272461 C-7.99169612 -0.33534708 -6.17209445 -1.62423538 0 0 Z " fill="#5A5A5A" transform="translate(334,207)"/>
<path d="M0 0 C0.66 0.33 1.32 0.66 2 1 C1.21625 1.66 0.4325 2.32 -0.375 3 C-3.20410777 6.23326602 -3.72649967 7.98155803 -4.55078125 12.02734375 C-5.74197323 17.25823028 -9.02494424 21.72923252 -11.9140625 26.16796875 C-13.15649769 28.11664777 -13.15649769 28.11664777 -14 31 C-14.66 31 -15.32 31 -16 31 C-16.33 32.65 -16.66 34.3 -17 36 C-17.66 36 -18.32 36 -19 36 C-19.268125 36.804375 -19.53625 37.60875 -19.8125 38.4375 C-20.204375 39.283125 -20.59625 40.12875 -21 41 C-22.485 41.495 -22.485 41.495 -24 42 C-24 42.66 -24 43.32 -24 44 C-24.66 44 -25.32 44 -26 44 C-26.33 45.32 -26.66 46.64 -27 48 C-28.98 48.495 -28.98 48.495 -31 49 C-31.66 52.3 -32.32 55.6 -33 59 C-33.66 59 -34.32 59 -35 59 C-35.04125 59.969375 -35.0825 60.93875 -35.125 61.9375 C-35.8406351 67.1258545 -38.99587652 70.85665048 -42 75 C-44.45700459 78.18955165 -44.45700459 78.18955165 -44.69384766 81.91064453 C-43.98896632 84.03322528 -43.12826906 85.71307662 -41.9609375 87.6171875 C-41.54851807 88.30014893 -41.13609863 88.98311035 -40.71118164 89.68676758 C-40.2702417 90.40888428 -39.82930176 91.13100098 -39.375 91.875 C-35.39598696 98.49241904 -31.79701993 105.17725307 -28.47265625 112.14453125 C-27.16472976 114.68059031 -25.71971712 116.74134019 -24 119 C-23.67 119.99 -23.34 120.98 -23 122 C-21.515 122.495 -21.515 122.495 -20 123 C-18.96514123 125.31808364 -17.9644586 127.65175298 -17 130 C-16.34 130.33 -15.68 130.66 -15 131 C-15 132.65 -15 134.3 -15 136 C-12.83125748 135.49396008 -11.00032373 135.00016187 -9 134 C-9.5625 136.375 -9.5625 136.375 -11 139 C-14.625 140.3125 -14.625 140.3125 -18 141 C-21.8122567 137.47086426 -24.33191927 134.05382399 -26.8125 129.5 C-27.50588966 128.24633041 -28.2012494 126.9937487 -28.8984375 125.7421875 C-29.24745117 125.1140918 -29.59646484 124.48599609 -29.95605469 123.83886719 C-31.53835122 121.05171624 -33.23722869 118.3413697 -34.9375 115.625 C-38.79472354 109.41395895 -42.40018749 103.08150872 -45.9375 96.68359375 C-47.16313832 94.47057309 -48.42166318 92.31573854 -49.75 90.16015625 C-50.224375 89.38542969 -50.69875 88.61070312 -51.1875 87.8125 C-51.59355469 87.17957031 -51.99960938 86.54664063 -52.41796875 85.89453125 C-53.30063726 83.02141563 -52.3414367 81.64808109 -51 79 C-49.74251364 76.76133595 -48.46122095 74.56530941 -47.125 72.375 C-46.73280273 71.7260376 -46.34060547 71.0770752 -45.93652344 70.40844727 C-42.28733681 64.40231705 -38.50669254 58.48093184 -34.73168945 52.5534668 C-30.79539754 46.33895515 -27.03216291 40.03360715 -23.3125 33.6875 C-8.89913336 9.16586488 -8.89913336 9.16586488 0 0 Z " fill="#414141" transform="translate(278,134)"/>
<path d="M0 0 C0.89485107 -0.00064453 1.78970215 -0.00128906 2.71166992 -0.00195312 C16.61896224 0.09992332 30.50722563 1.20985246 44.375 2.1875 C44.375 2.5175 44.375 2.8475 44.375 3.1875 C28.31355421 3.57924258 12.38017853 2.37799399 -3.625 1.1875 C-2.97144531 2.18716797 -2.97144531 2.18716797 -2.3046875 3.20703125 C1.3260242 8.82598984 4.69596205 14.50112778 7.85253906 20.39794922 C11.06358333 26.28143091 14.5850787 31.99021197 18.046875 37.72851562 C18.88605469 39.13327148 18.88605469 39.13327148 19.7421875 40.56640625 C20.24862793 41.4076001 20.75506836 42.24879395 21.27685547 43.11547852 C22.375 45.1875 22.375 45.1875 22.375 47.1875 C21.715 47.1875 21.055 47.1875 20.375 47.1875 C20.375 46.1975 20.375 45.2075 20.375 44.1875 C18.89 44.6825 18.89 44.6825 17.375 45.1875 C17.375 47.89004461 17.40930669 49.69279228 18.375 52.1875 C18.99375 52.496875 19.6125 52.80625 20.25 53.125 C23.73699535 54.86849768 24.83100446 57.86298912 26.2734375 61.375 C28.22594397 66.35390038 28.22594397 66.35390038 31.875 70.125 C35.16676984 72.84071012 35.90731921 75.60238655 37.35546875 79.54296875 C40.08930232 86.6341769 44.33856173 92.74115805 48.82421875 98.828125 C51.09320779 102.28018894 52.375 105.03368467 52.375 109.1875 C53.035 109.1875 53.695 109.1875 54.375 109.1875 C57.81860058 111.85351336 59.0084641 114.57791442 60.39453125 118.62890625 C61.69273153 122.01664004 63.26548199 125.25255826 64.875 128.5 C65.17188721 129.11085449 65.46877441 129.72170898 65.7746582 130.35107422 C67.33204634 133.46412534 68.88906966 135.78223407 71.375 138.1875 C72.0625 141.375 72.0625 141.375 72.375 144.1875 C73.035 144.1875 73.695 144.1875 74.375 144.1875 C75.40541513 146.14080868 76.4240893 148.10031528 77.4375 150.0625 C78.00597656 151.15304687 78.57445312 152.24359375 79.16015625 153.3671875 C79.56105469 154.29789063 79.96195312 155.22859375 80.375 156.1875 C80.045 156.8475 79.715 157.5075 79.375 158.1875 C71.17492689 144.61936127 63.12885243 130.96673044 55.16162109 117.26074219 C52.21531583 112.19267841 49.26473718 107.12711024 46.3125 102.0625 C45.73185791 101.06621582 45.15121582 100.06993164 44.55297852 99.04345703 C40.70681565 92.45110917 36.82979321 85.87769183 32.9375 79.3125 C28.12911251 71.19991374 23.3927526 63.04780892 18.6875 54.875 C12.45973401 44.04962149 12.45973401 44.04962149 6.1875 33.25 C5.80650146 32.59700928 5.42550293 31.94401855 5.03295898 31.27124023 C2.80466781 27.49218201 0.48606021 23.7856098 -1.90234375 20.10546875 C-2.45833252 19.24493896 -3.01432129 18.38440918 -3.5871582 17.49780273 C-4.67018417 15.83025122 -5.76330913 14.16920163 -6.86791992 12.51586914 C-7.35752197 11.76297607 -7.84712402 11.01008301 -8.3515625 10.234375 C-8.79064941 9.57276367 -9.22973633 8.91115234 -9.68212891 8.22949219 C-10.82482627 5.7547328 -10.79540237 3.88231678 -10.625 1.1875 C-7.31314296 -0.46842852 -3.63942476 -0.00272948 0 0 Z " fill="#474747" transform="translate(81.625,111.8125)"/>
<path d="M0 0 C1.6705517 0.09672128 3.34112458 0.19307761 5.01171875 0.2890625 C9.0497348 0.52184893 13.08743489 0.75952408 17.125 1 C17.125 1.33 17.125 1.66 17.125 2 C1.44979149 2.22864972 -14.21252193 1.55473735 -29.875 1 C-29.42914551 1.61020996 -28.98329102 2.22041992 -28.52392578 2.84912109 C-24.41897346 8.57193981 -20.9133861 14.33944455 -17.75 20.625 C-14.71036638 26.60715435 -11.5050129 32.35561702 -7.875 38 C-5.1875 42.375 -5.1875 42.375 -3.98828125 44.3359375 C-2.84882796 46.15585472 -2.84882796 46.15585472 -0.875 48 C-0.20311851 49.66457126 0.4622753 51.33176195 1.125 53 C2.80092935 56.25624594 4.59472468 59.45049267 6.37890625 62.6484375 C9.125 67.67791323 9.125 67.67791323 9.125 71 C10.115 71.33 11.105 71.66 12.125 72 C9.86377903 73.42373172 8.37793499 73.99351449 5.6875 74.0625 C-0.39971619 71.53853231 -3.31754372 63.49743729 -6.2734375 57.95703125 C-7.91209766 54.93150505 -9.62916819 51.96483773 -11.375 49 C-13.4987045 45.38371359 -15.57358885 41.75452569 -17.5625 38.0625 C-21.59644475 30.59587598 -25.85071165 23.25325163 -30.0703125 15.890625 C-30.78622559 14.63475586 -30.78622559 14.63475586 -31.51660156 13.35351562 C-32.37095629 11.87328925 -33.24063041 10.40169569 -34.13183594 8.94335938 C-36.17545546 5.56788227 -36.875 4.06967642 -36.875 0 C-25.75903655 -3.37598408 -11.49894581 -0.68629799 0 0 Z " fill="#515151" transform="translate(206.875,119)"/>
<path d="M0 0 C1.63962506 1.63962506 1.12603837 3.50622217 1.12698364 5.76721191 C1.12980347 6.79893524 1.13262329 7.83065857 1.13552856 8.89364624 C1.13350433 10.03540314 1.1314801 11.17716003 1.12939453 12.35351562 C1.13114685 13.54864777 1.13289917 14.74377991 1.13470459 15.97512817 C1.13836431 19.26484653 1.13748765 22.55450238 1.1343255 25.8442173 C1.13179815 29.28868317 1.13414093 32.73314633 1.13571167 36.1776123 C1.13753422 41.97160319 1.13512687 47.76558136 1.13037109 53.55957031 C1.12494882 60.24238059 1.12667591 66.92516025 1.1321975 73.60796976 C1.13675077 79.34991164 1.13736775 85.09184434 1.13475883 90.83378744 C1.13320556 94.26076349 1.13297571 97.68772521 1.13629532 101.11470032 C1.13884456 104.94693033 1.13494825 108.77910241 1.12939453 112.61132812 C1.13141876 113.73689117 1.13344299 114.86245422 1.13552856 116.02212524 C1.11927684 122.09835362 0.79553459 127.97468548 0 134 C-0.33 134 -0.66 134 -1 134 C-1.33 90.44 -1.66 46.88 -2 2 C-2.66 2 -3.32 2 -4 2 C-4.144375 2.78375 -4.28875 3.5675 -4.4375 4.375 C-5 7 -5 7 -6 9 C-6.66 9 -7.32 9 -8 9 C-8.309375 10.175625 -8.309375 10.175625 -8.625 11.375 C-10.12514493 15.32992755 -12.07325256 18.63021878 -14.2890625 22.21875 C-16.09818279 25.15960307 -17.83406279 28.13608675 -19.5625 31.125 C-21.50879461 34.47552909 -23.47838899 37.79605679 -25.5625 41.0625 C-27.5541408 44.1940931 -29.31609304 47.41298695 -31.0625 50.6875 C-33.0817597 54.44426223 -35.13691079 57.80655434 -38 61 C-37.67 57.7 -37.34 54.4 -37 51 C-36.34 51 -35.68 51 -35 51 C-34.71125 49.865625 -34.4225 48.73125 -34.125 47.5625 C-33.75375 46.386875 -33.3825 45.21125 -33 44 C-32.01 43.505 -32.01 43.505 -31 43 C-30.773125 41.88625 -30.54625 40.7725 -30.3125 39.625 C-29.19222258 34.67637299 -26.64461824 31.02850507 -23.85546875 26.84765625 C-22.1062264 24.16302957 -20.56516614 21.45330587 -19.0625 18.625 C-16.74409592 14.31226983 -14.33339682 10.07168419 -11.8125 5.875 C-11.15894531 4.77929688 -10.50539063 3.68359375 -9.83203125 2.5546875 C-6.91570989 -1.51199516 -4.51051009 -1.18697634 0 0 Z " fill="#6A6A6A" transform="translate(334,207)"/>
<path d="M0 0 C0.66 0 1.32 0 2 0 C2.33 1.32 2.66 2.64 3 4 C3.66 4 4.32 4 5 4 C11.8360264 16.5967228 11.8360264 16.5967228 14.3125 21.625 C15.93379945 24.8675989 17.43535804 27.43535804 20 30 C20.15860962 32.86393484 20.19199073 35.62685018 20.13525391 38.48876953 C20.12579239 39.36688293 20.11633087 40.24499634 20.10658264 41.14971924 C20.0728233 44.06095846 20.02473055 46.97177891 19.9765625 49.8828125 C19.95040379 51.89776505 19.92513611 53.91272936 19.90072632 55.92770386 C19.83399289 61.23792355 19.75511799 66.54789697 19.67376709 71.85791016 C19.57872083 78.22541498 19.49866065 84.59312349 19.41610718 90.96080017 C19.28892452 100.64073896 19.14263314 110.32022095 19 120 C50.68 120.495 50.68 120.495 83 121 C82.67 85.36 82.34 49.72 82 13 C82.33 13 82.66 13 83 13 C84.12208238 17.66298113 84.33282978 22.28654372 84.55419922 27.05786133 C84.59630964 27.93935002 84.63842007 28.82083872 84.68180656 29.72903919 C85.10061859 39.17781977 85.14538828 48.61780692 85.1328125 58.07421875 C85.13348857 59.90411899 85.13446111 61.73401913 85.13571167 63.56391907 C85.1371673 67.34771605 85.1350993 71.13148905 85.13037109 74.9152832 C85.12459662 79.77305537 85.12801409 84.6307732 85.13394356 89.48854351 C85.1375414 93.24329547 85.13641554 96.9980343 85.13381577 100.75278664 C85.13314833 102.54662902 85.13396854 104.34047259 85.13629532 106.13431358 C85.13881733 108.61781415 85.13499132 111.10122312 85.12939453 113.5847168 C85.13141876 114.32581192 85.13344299 115.06690704 85.13552856 115.83045959 C85.11427936 120.88572064 85.11427936 120.88572064 84 122 C81.98593871 122.10460718 79.96818089 122.13855828 77.95141602 122.14526367 C76.65659805 122.15164352 75.36178009 122.15802338 74.02772522 122.16459656 C72.60311927 122.16612511 71.17851283 122.16723914 69.75390625 122.16796875 C68.30281033 122.17117962 66.85171473 122.17454356 65.40061951 122.17805481 C62.35488128 122.18405246 59.30917145 122.18589407 56.26342773 122.18530273 C52.35464143 122.18520109 48.44603668 122.19885309 44.53729343 122.21607494 C41.5390692 122.22717671 38.5408891 122.22922251 35.54264641 122.22869301 C34.10130119 122.22987589 32.65995492 122.23431486 31.21862984 122.24202538 C29.20510304 122.25178786 27.19152332 122.24769271 25.17797852 122.24291992 C24.03071793 122.24434494 22.88345734 122.24576996 21.70143127 122.24723816 C19 122 19 122 17 120 C16.80333429 117.32262164 16.73043327 114.74729876 16.74462891 112.06884766 C16.74100845 111.24902405 16.737388 110.42920044 16.73365784 109.58453369 C16.72675196 107.79919169 16.72426062 106.01382852 16.72560501 104.22847366 C16.72656944 101.39365656 16.71363378 98.55921958 16.69662476 95.72445679 C16.65035551 87.66252691 16.62578767 79.60063219 16.61914062 71.53857422 C16.61409534 66.60830931 16.58968227 61.67843468 16.55381393 56.74830246 C16.54407459 54.87705211 16.54165163 53.00574762 16.54698563 51.13447952 C16.58782035 36.08841568 14.29702534 24.93482668 6.3125 11.9375 C5.32719538 10.30212377 4.34402234 8.66546082 3.36328125 7.02734375 C2.93313721 6.32343506 2.50299316 5.61952637 2.05981445 4.89428711 C1 3 1 3 0 0 Z " fill="#363637" transform="translate(162,270)"/>
<path d="M0 0 C0.66 0.33 1.32 0.66 2 1 C1.21625 1.66 0.4325 2.32 -0.375 3 C-3.20410777 6.23326602 -3.72649967 7.98155803 -4.55078125 12.02734375 C-5.74197323 17.25823028 -9.02494424 21.72923252 -11.9140625 26.16796875 C-13.15649769 28.11664777 -13.15649769 28.11664777 -14 31 C-14.66 31 -15.32 31 -16 31 C-16.33 32.65 -16.66 34.3 -17 36 C-17.66 36 -18.32 36 -19 36 C-19.268125 36.804375 -19.53625 37.60875 -19.8125 38.4375 C-20.204375 39.283125 -20.59625 40.12875 -21 41 C-22.485 41.495 -22.485 41.495 -24 42 C-24 42.66 -24 43.32 -24 44 C-24.66 44 -25.32 44 -26 44 C-26.33 45.32 -26.66 46.64 -27 48 C-28.98 48.495 -28.98 48.495 -31 49 C-31.66 52.3 -32.32 55.6 -33 59 C-33.66 59 -34.32 59 -35 59 C-35.04125 59.969375 -35.0825 60.93875 -35.125 61.9375 C-35.73248522 66.3043503 -37.91641921 69.18082767 -40.43359375 72.7109375 C-42.6729388 75.98339685 -44.30715078 79.41897281 -46 83 C-47.65 83 -49.3 83 -51 83 C-51 82.34 -51 81.68 -51 81 C-50.34 81 -49.68 81 -49 81 C-49.05671875 80.10667969 -49.1134375 79.21335937 -49.171875 78.29296875 C-48.98008279 74.61840439 -48.31976149 73.29394215 -46.25 70.3125 C-45.60804688 69.35601562 -44.96609375 68.39953125 -44.3046875 67.4140625 C-43.75699707 66.6082373 -43.75699707 66.6082373 -43.19824219 65.78613281 C-40.85705856 62.2963 -38.62081843 58.73914581 -36.375 55.1875 C-35.86638428 54.38521973 -35.35776855 53.58293945 -34.83374023 52.75634766 C-30.8713103 46.47010045 -27.07115916 40.0972234 -23.3125 33.6875 C-8.89724174 9.16391656 -8.89724174 9.16391656 0 0 Z " fill="#606060" transform="translate(278,134)"/>
<path d="M0 0 C0.33 0 0.66 0 1 0 C2.14384363 10.3760584 2.12935295 20.68796572 2.09765625 31.109375 C2.09578724 32.93068401 2.09436562 34.75199353 2.09336853 36.57330322 C2.08958138 41.32756988 2.07978432 46.08180516 2.06866455 50.83605957 C2.05836793 55.70320207 2.05385337 60.57034971 2.04882812 65.4375 C2.03815801 74.95834699 2.02112823 84.47917087 2 94 C0.35 94 -1.3 94 -3 94 C-3.02571574 87.20883001 -3.04301724 80.41767292 -3.05493164 73.62646484 C-3.05990757 71.32437674 -3.0666907 69.0222917 -3.07543945 66.72021484 C-3.1185594 55.06768433 -3.15809997 43.44722047 -2.34706116 31.81741333 C-2.01464676 27.02801732 -1.97845408 22.29520196 -2.0625 17.5 C-2.11727099 11.4143342 -1.58201422 5.87605282 0 0 Z " fill="#5C5C5C" transform="translate(184,296)"/>
<path d="M0 0 C5.41069926 3.60713284 6.85068364 6.44497093 8.1640625 12.79296875 C8.79741276 15.1608109 8.79741276 15.1608109 10.9921875 16.171875 C11.98605469 16.58179688 11.98605469 16.58179688 13 17 C14.65946177 19.28175993 15.82784821 21.58084783 16.8984375 24.1875 C18.85094397 29.16640038 18.85094397 29.16640038 22.5 32.9375 C25.79176984 35.65321012 26.53231921 38.41488655 27.98046875 42.35546875 C30.71430232 49.4466769 34.96356173 55.55365805 39.44921875 61.640625 C41.71820779 65.09268894 43 67.84618467 43 72 C43.66 72 44.32 72 45 72 C48.44360058 74.66601336 49.6334641 77.39041442 51.01953125 81.44140625 C52.31773153 84.82914004 53.89048199 88.06505826 55.5 91.3125 C55.79688721 91.92335449 56.09377441 92.53420898 56.3996582 93.16357422 C57.95704634 96.27662534 59.51406966 98.59473407 62 101 C62.6875 104.1875 62.6875 104.1875 63 107 C63.66 107 64.32 107 65 107 C66.03041513 108.95330868 67.0490893 110.91281528 68.0625 112.875 C68.63097656 113.96554687 69.19945312 115.05609375 69.78515625 116.1796875 C70.18605469 117.11039062 70.58695312 118.04109375 71 119 C70.67 119.66 70.34 120.32 70 121 C61.79992689 107.43186127 53.75385243 93.77923044 45.78662109 80.07324219 C42.84031583 75.00517841 39.88973718 69.93961024 36.9375 64.875 C36.35685791 63.87871582 35.77621582 62.88243164 35.17797852 61.85595703 C31.33181382 55.26360603 27.4544033 48.69042499 23.5625 42.125 C18.94849253 34.33072024 14.36601299 26.5183744 9.82418823 18.68182373 C8.83422497 16.97495757 7.84109756 15.26992783 6.84790039 13.56494141 C5.94285767 11.99945557 5.94285767 11.99945557 5.01953125 10.40234375 C4.48432861 9.47929443 3.94912598 8.55624512 3.39770508 7.60522461 C2.06356831 5.11848689 0.99047099 2.63996435 0 0 Z " fill="#202020" transform="translate(91,149)"/>
<path d="M0 0 C3.21757603 2.12251864 4.68923288 3.86909774 6.25 7.375 C8.82124967 12.81112971 11.91026797 17.81811552 15.09375 22.9140625 C17.04905112 26.07940653 18.87980746 29.28023351 20.63671875 32.55859375 C21.73152487 34.51920643 22.8960824 36.4407929 24.08203125 38.34765625 C28.16494441 44.97110828 31.18461551 49.97093935 30 58 C29.67 58.99 29.34 59.98 29 61 C28.92979598 62.55975779 28.91566738 64.12240949 28.9375 65.68359375 C28.94587891 66.60640137 28.95425781 67.52920898 28.96289062 68.47998047 C28.97513672 69.45596191 28.98738281 70.43194336 29 71.4375 C29.05680158 79.36002929 28.93056756 87.1234103 28 95 C27.67 95 27.34 95 27 95 C27 81.8 27 68.6 27 55 C26.34 55.66 25.68 56.32 25 57 C24.51080078 55.55367188 24.51080078 55.55367188 24.01171875 54.078125 C23.5706888 52.80195323 23.12926154 51.52591871 22.6875 50.25 C22.47416016 49.61578125 22.26082031 48.9815625 22.04101562 48.328125 C20.78595936 44.73154585 19.41838305 41.9319644 17 39 C13.71822763 33.17750063 11.80484515 27.39179959 10.02734375 20.953125 C9.03740311 18.10751616 7.945931 16.27117159 6 14 C5.01 14.495 5.01 14.495 4 15 C2 7 2 7 1.55859375 4.859375 C1.09317322 2.77733293 1.09317322 2.77733293 -1 1 C-0.67 0.67 -0.34 0.34 0 0 Z " fill="#373737" transform="translate(154,245)"/>
<path d="M0 0 C1.6705517 0.09672128 3.34112458 0.19307761 5.01171875 0.2890625 C9.0497348 0.52184893 13.08743489 0.75952408 17.125 1 C17.125 1.33 17.125 1.66 17.125 2 C1.44979149 2.22864972 -14.21252193 1.55473735 -29.875 1 C-29.4305957 1.60730957 -28.98619141 2.21461914 -28.52832031 2.84033203 C-24.36408925 8.64106803 -20.83189411 14.50206394 -17.625 20.875 C-16.78973954 22.51989944 -15.95130376 24.16319118 -15.109375 25.8046875 C-14.75069336 26.51608887 -14.39201172 27.22749023 -14.02246094 27.96044922 C-12.80336409 30.12732902 -11.40611782 32.04406019 -9.875 34 C-10.205 34.66 -10.535 35.32 -10.875 36 C-13.4375 36.625 -13.4375 36.625 -15.875 37 C-22.76338269 26.62642369 -22.76338269 26.62642369 -21.875 21 C-22.535 21 -23.195 21 -23.875 21 C-23.99875 20.360625 -24.1225 19.72125 -24.25 19.0625 C-24.45625 18.381875 -24.6625 17.70125 -24.875 17 C-25.535 16.67 -26.195 16.34 -26.875 16 C-26.875 14.68 -26.875 13.36 -26.875 12 C-27.596875 11.79375 -28.31875 11.5875 -29.0625 11.375 C-32.90203273 9.49789511 -34.42018644 7.50687652 -36.875 4 C-36.875 2.68 -36.875 1.36 -36.875 0 C-25.75903655 -3.37598408 -11.49894581 -0.68629799 0 0 Z " fill="#656565" transform="translate(206.875,119)"/>
<path d="M0 0 C-1.423125 0.0928125 -1.423125 0.0928125 -2.875 0.1875 C-4.421875 0.5896875 -4.421875 0.5896875 -6 1 C-7.41666667 3.33333333 -7.41666667 3.33333333 -8 6 C-8.33 6.99 -8.66 7.98 -9 9 C-9.66 9 -10.32 9 -11 9 C-11.04125 9.9075 -11.0825 10.815 -11.125 11.75 C-11.80762297 16.68897794 -14.23653979 20.78057125 -16.5234375 25.1484375 C-18.09601934 28.0860951 -18.09601934 28.0860951 -19.5 31.625 C-21.17839482 35.40138834 -23.22388787 38.79332272 -25.38671875 42.30859375 C-27.05968586 45.09957278 -28.59766533 47.93956416 -30.125 50.8125 C-32.12309726 54.52475438 -34.16993278 57.84338656 -37 61 C-36.67 57.7 -36.34 54.4 -36 51 C-35.34 51 -34.68 51 -34 51 C-33.71125 49.865625 -33.4225 48.73125 -33.125 47.5625 C-32.75375 46.386875 -32.3825 45.21125 -32 44 C-31.01 43.505 -31.01 43.505 -30 43 C-29.773125 41.88625 -29.54625 40.7725 -29.3125 39.625 C-28.19222258 34.67637299 -25.64461824 31.02850507 -22.85546875 26.84765625 C-21.1062264 24.16302957 -19.56516614 21.45330587 -18.0625 18.625 C-15.74409592 14.31226983 -13.33339682 10.07168419 -10.8125 5.875 C-10.15894531 4.77929688 -9.50539063 3.68359375 -8.83203125 2.5546875 C-6.14604302 -1.19080568 -4.15597874 -1.2897865 0 0 Z " fill="#5A5A5A" transform="translate(333,207)"/>
<path d="M0 0 C0.82860157 0.00285318 1.65720314 0.00570637 2.51091385 0.00864601 C12.22896689 0.08309846 21.91912 0.60588658 31.62011719 1.14990234 C33.60050634 1.2575544 35.58091454 1.36485649 37.56134033 1.47183228 C41.68268155 1.69557336 45.80380817 1.92283141 49.92480469 2.15283203 C55.13545688 2.44346238 60.34649808 2.72624112 65.55772018 3.00644493 C69.64035688 3.22669349 73.72278098 3.45070186 77.80515289 3.67580032 C79.72310165 3.78122487 81.64110409 3.8856787 83.55916595 3.98902512 C97.55088471 4.74638838 111.4954803 5.83822308 125.44824219 7.12646484 C125.11824219 8.77646484 124.78824219 10.42646484 124.44824219 12.12646484 C124.11824219 11.46646484 123.78824219 10.80646484 123.44824219 10.12646484 C123.77824219 9.46646484 124.10824219 8.80646484 124.44824219 8.12646484 C123.47397278 8.13620834 122.49970337 8.14595184 121.49591064 8.1559906 C111.92393151 8.22193445 102.42523977 7.89667284 92.87011719 7.28662109 C91.44202003 7.19894756 90.01389844 7.11167132 88.58575439 7.02476501 C85.62436128 6.84359124 82.66318449 6.65932968 79.70214844 6.47241211 C75.94196109 6.23506521 72.1814663 6.00312365 68.42081833 5.77320194 C64.77880551 5.55032123 61.13695414 5.32485438 57.49511719 5.09912109 C56.82052208 5.05749407 56.14592697 5.01586704 55.45088959 4.97297859 C49.01521231 4.57420022 42.58773303 4.15148668 36.16503906 3.57836914 C30.74809064 3.11456451 25.36779154 2.94972601 19.93261719 2.92333984 C18.99194397 2.91763977 18.05127075 2.9119397 17.08209229 2.90606689 C15.11593723 2.89671495 13.14976719 2.8901226 11.18359375 2.88623047 C8.19080671 2.87644052 5.19868389 2.84529102 2.20605469 2.81396484 C0.28157953 2.80744039 -1.64290044 2.80218773 -3.56738281 2.79833984 C-4.89264984 2.77981964 -4.89264984 2.77981964 -6.24468994 2.76092529 C-12.04994224 2.78162708 -16.19691776 3.90323035 -21.55175781 6.12646484 C-22.54175781 6.12646484 -23.53175781 6.12646484 -24.55175781 6.12646484 C-24.88175781 7.11646484 -25.21175781 8.10646484 -25.55175781 9.12646484 C-26.87175781 8.79646484 -28.19175781 8.46646484 -29.55175781 8.12646484 C-20.66994042 1.52203653 -10.86876801 -0.0635694 0 0 Z " fill="#494949" transform="translate(309.5517578125,124.87353515625)"/>
<path d="M0 0 C0.95611549 3.50685958 1.10211174 6.60571981 1.0625 10.25 C1.05347656 11.32765625 1.04445313 12.4053125 1.03515625 13.515625 C1.02355469 14.33546875 1.01195312 15.1553125 1 16 C0.67 16 0.34 16 0 16 C0 41.41 0 66.82 0 93 C-0.99 92.67 -1.98 92.34 -3 92 C-3.06967496 81.33362269 -3.12289994 70.66730001 -3.15543652 60.000741 C-3.17105666 55.04720553 -3.19222797 50.09382638 -3.22631836 45.14038086 C-3.25904236 40.35523897 -3.27688045 35.57024695 -3.28463173 30.78500175 C-3.2901519 28.96425456 -3.30093123 27.14351507 -3.31719017 25.32283211 C-3.33913814 22.76200095 -3.34195974 20.20178002 -3.34057617 17.64086914 C-3.351362 16.89711533 -3.36214783 16.15336151 -3.3732605 15.3870697 C-3.34097494 9.82283755 -2.00192591 5.17346954 0 0 Z " fill="#1B1B1B" transform="translate(271,299)"/>
<path d="M0 0 C0.33 1.32 0.66 2.64 1 4 C0.34 4 -0.32 4 -1 4 C0.12392548 7.89051128 1.03457324 10.27180738 4 13 C6.12167411 16.22494464 7.57170853 19.42927132 9 23 C9.53625 23.886875 10.0725 24.77375 10.625 25.6875 C12 28 12 28 12 30 C12.99 29.67 13.98 29.34 15 29 C15.33 30.65 15.66 32.3 16 34 C16.66 34 17.32 34 18 34 C22.26223653 39.94099479 25.30700437 45.83049379 26.5625 53.0234375 C27.30879675 56.39509958 28.67797312 58.48970067 31 61 C34.6365731 61.97350778 34.6365731 61.97350778 38 62 C35.62387421 63.58408386 34.50267154 64.09802095 31.65625 63.54296875 C27.75201848 61.27506956 26.30445393 58.08413046 24.1875 54.1875 C23.30850977 52.62952047 22.42828944 51.07223434 21.546875 49.515625 C21.11568359 48.74541016 20.68449219 47.97519531 20.24023438 47.18164062 C18.55243052 44.21270061 16.7541162 41.329553 14.9375 38.4375 C11.12522778 32.28693125 7.56281485 26.01506833 4.0625 19.68359375 C2.83686168 17.47057309 1.57833682 15.31573854 0.25 13.16015625 C-3.13459517 7.63259729 -3.13459517 7.63259729 -2.375 4.0625 C-1.92125 3.381875 -1.4675 2.70125 -1 2 C-0.67 1.34 -0.34 0.68 0 0 Z " fill="#0F0F0F" transform="translate(228,211)"/>
<path d="M0 0 C0.66 0 1.32 0 2 0 C0.73302504 3.35306396 -0.70045917 6.37653829 -2.5625 9.4375 C-3.08328125 10.29472656 -3.6040625 11.15195312 -4.140625 12.03515625 C-5.52707098 14.24589679 -6.93095192 16.43776168 -8.359375 18.62109375 C-8.76470459 19.24250244 -9.17003418 19.86391113 -9.58764648 20.50415039 C-10.39163229 21.73216379 -11.20088413 22.95674885 -12.01586914 24.17749023 C-15.91387171 30.12103774 -16.1566312 34.71785288 -16.20532227 41.71582031 C-16.21522186 42.59422577 -16.22512146 43.47263123 -16.23532104 44.37765503 C-16.26687961 47.27778438 -16.2916712 50.17793009 -16.31640625 53.078125 C-16.33698065 55.09023461 -16.35797725 57.10233994 -16.37937927 59.11444092 C-16.43454976 64.40800512 -16.48398121 69.70160801 -16.53222656 74.99523926 C-16.58247824 80.39790282 -16.63814517 85.80051028 -16.69335938 91.203125 C-16.80087952 101.80203539 -16.90233816 112.40099451 -17 123 C-17.33 123 -17.66 123 -18 123 C-18.01030746 121.91227798 -18.02061493 120.82455597 -18.03123474 119.70387268 C-18.1287936 109.47640569 -18.23151059 99.24900194 -18.33933926 89.02163792 C-18.39461375 83.76306363 -18.44804084 78.50448382 -18.49731445 73.24584961 C-18.54489142 68.17541936 -18.59723154 63.10505903 -18.65294075 58.03471184 C-18.67339462 56.09575061 -18.69210257 54.15677018 -18.70907402 52.21777534 C-18.73305117 49.51173046 -18.76311445 46.80581901 -18.79467773 44.09985352 C-18.8004332 43.28993454 -18.80618866 42.48001556 -18.81211853 41.64555359 C-18.52349669 38.02335774 -18.52349669 38.02335774 -20 35 C-20.33366292 31.91361798 -20.22870204 30.38463525 -18.625 27.6875 C-18.08875 27.130625 -17.5525 26.57375 -17 26 C-16.34 26 -15.68 26 -15 26 C-14.731875 25.319375 -14.46375 24.63875 -14.1875 23.9375 C-12.83946694 20.60289191 -11.42463702 17.30256763 -10 14 C-9.34 14 -8.68 14 -8 14 C-7.67 12.68 -7.34 11.36 -7 10 C-6.01 10 -5.02 10 -4 10 C-3.79503906 9.36191406 -3.59007812 8.72382813 -3.37890625 8.06640625 C-3.10949219 7.24011719 -2.84007812 6.41382813 -2.5625 5.5625 C-2.29566406 4.73878906 -2.02882813 3.91507812 -1.75390625 3.06640625 C-1 1 -1 1 0 0 Z " fill="#A6A6A6" transform="translate(294,268)"/>
<path d="M0 0 C0.33 1.32 0.66 2.64 1 4 C0.01 4.33 -0.98 4.66 -2 5 C-2.144375 5.78375 -2.28875 6.5675 -2.4375 7.375 C-3 10 -3 10 -4 12 C-4.66 12 -5.32 12 -6 12 C-5.79375 12.721875 -5.5875 13.44375 -5.375 14.1875 C-4.93175385 17.51184616 -5.41744737 19.07227764 -7 22 C-7.99 22.66 -8.98 23.32 -10 24 C-11.00168531 25.94832935 -11.00168531 25.94832935 -11.6875 28.125 C-11.93886719 28.84945313 -12.19023437 29.57390625 -12.44921875 30.3203125 C-12.63097656 30.87460937 -12.81273437 31.42890625 -13 32 C-13.99 32 -14.98 32 -16 32 C-16.33 33.32 -16.66 34.64 -17 36 C-17.66 36 -18.32 36 -19 36 C-19.0825 36.680625 -19.165 37.36125 -19.25 38.0625 C-21.0112609 44.96077188 -24.47171196 48.85378397 -30 53 C-30 48.86570307 -28.01705386 46.10711058 -26 42.625 C-25.59136719 41.90965088 -25.18273437 41.19430176 -24.76171875 40.45727539 C-21.6295847 35.00695002 -18.37258102 29.63911996 -15.046875 24.3046875 C-12.36029774 19.96719826 -9.74756838 15.58700075 -7.14453125 11.19897461 C-4.87018626 7.3839275 -2.49102983 3.67483004 0 0 Z " fill="#595959" transform="translate(303,246)"/>
<path d="M0 0 C1.49739583 1.26953125 2.99479167 2.5390625 4.4921875 3.80859375 C6.00594079 5.0878152 6.00594079 5.0878152 8 6 C8 7.32 8 8.64 8 10 C8.99 10.33 9.98 10.66 11 11 C11 12.32 11 13.64 11 15 C11.66 15 12.32 15 13 15 C13.2475 16.175625 13.495 17.35125 13.75 18.5625 C14.81896129 22.90806003 16.63577541 26.21724066 19 30 C19.78375 29.814375 20.5675 29.62875 21.375 29.4375 C24 29 24 29 26 30 C26.15584033 31.93301953 26.22239723 33.87340516 26.25 35.8125 C26.61432945 42.41414958 28.55256161 46.95203689 31.8203125 52.63671875 C32.20960938 53.41660156 32.59890625 54.19648438 33 55 C32.505 55.99 32.505 55.99 32 57 C28.99610855 52.04088275 26.0020239 47.07592414 23.0234375 42.1015625 C22.26426025 40.8343335 22.26426025 40.8343335 21.48974609 39.54150391 C19.47898222 36.11114468 17.56834797 32.63243217 15.703125 29.12109375 C14.1859079 26.34068902 12.62669996 23.59277341 11.046875 20.84765625 C10.50675781 19.90913818 9.96664062 18.97062012 9.41015625 18.00366211 C8.32165352 16.11623039 7.23059566 14.23026943 6.13671875 12.34594727 C5.63269531 11.47123779 5.12867188 10.59652832 4.609375 9.6953125 C3.9282666 8.5199292 3.9282666 8.5199292 3.23339844 7.32080078 C1.9650684 4.93427162 0.95782278 2.52532154 0 0 Z " fill="#444444" transform="translate(172,125)"/>
<path d="M0 0 C0.495 0.99 0.495 0.99 1 2 C0.34 2.99 -0.32 3.98 -1 5 C-3.60351562 5.35644531 -3.60351562 5.35644531 -6.90625 5.328125 C-8.11522949 5.32361328 -9.32420898 5.31910156 -10.56982422 5.31445312 C-12.51526123 5.28254883 -12.51526123 5.28254883 -14.5 5.25 C-15.84260346 5.23808859 -17.1852147 5.2270251 -18.52783203 5.21679688 C-25.32186897 5.15000982 -32.09621756 4.96097062 -38.875 4.5 C-46.54718022 3.99939587 -54.22325931 3.7585148 -61.91021729 3.65795898 C-63.28323456 3.63630446 -64.65614629 3.60581247 -66.02874756 3.56567383 C-78.14250835 3.22472422 -86.10742354 5.80946905 -95 14 C-95 12.35 -95 10.7 -95 9 C-93.865625 8.54625 -92.73125 8.0925 -91.5625 7.625 C-87.95278308 6.42904194 -87.95278308 6.42904194 -87 4 C-80.97356149 1.06458788 -75.02986158 0.58137045 -68.4375 0.75 C-67.26864258 0.75773438 -67.26864258 0.75773438 -66.07617188 0.765625 C-60.93396575 0.8310787 -55.82170315 1.13365104 -50.69140625 1.48046875 C-40.63661542 2.15298675 -30.57302129 2.34544721 -20.5 2.5625 C-18.59764965 2.60583113 -16.69530582 2.64944924 -14.79296875 2.69335938 C-10.19538063 2.79887033 -5.59772275 2.90053619 -1 3 C-0.67 2.01 -0.34 1.02 0 0 Z " fill="#414242" transform="translate(405,184)"/>
<path d="M0 0 C0.66 0 1.32 0 2 0 C2.33 1.32 2.66 2.64 3 4 C3.66 4 4.32 4 5 4 C7.34756414 8.32584853 9.67998899 12.65933424 12 17 C12.42410156 17.79148437 12.84820312 18.58296875 13.28515625 19.3984375 C17.02279194 26.58947803 18.29891538 32.90036184 18.22705078 40.87280273 C18.22734283 41.73213913 18.22763489 42.59147552 18.22793579 43.47685242 C18.22655086 46.29587163 18.21102931 49.11462114 18.1953125 51.93359375 C18.19157939 53.89656937 18.18873383 55.85954687 18.18673706 57.82252502 C18.17912407 62.97310589 18.15949569 68.12357283 18.1373291 73.27410889 C18.11682031 78.53623921 18.1077246 83.79838805 18.09765625 89.06054688 C18.07624754 99.3737478 18.04213987 109.6868644 18 120 C17.67 120 17.34 120 17 120 C16.99635437 118.94923279 16.99270874 117.89846558 16.98895264 116.81585693 C16.951872 106.87129929 16.89395761 96.92704756 16.81609726 86.98272324 C16.77673393 81.87128236 16.74449104 76.7600109 16.72900391 71.6484375 C16.71376361 66.70745995 16.67918847 61.7669485 16.63169098 56.8261795 C16.61695282 54.94936443 16.60896337 53.07248279 16.60811615 51.19561005 C16.59450001 36.14454653 14.29940513 24.93870054 6.3125 11.9375 C5.32719538 10.30212377 4.34402234 8.66546082 3.36328125 7.02734375 C2.93313721 6.32343506 2.50299316 5.61952637 2.05981445 4.89428711 C1 3 1 3 0 0 Z " fill="#121212" transform="translate(162,270)"/>
<path d="M0 0 C2.74609375 -0.37109375 2.74609375 -0.37109375 6 0 C8.16015625 2.52734375 8.16015625 2.52734375 10.0625 5.9375 C10.39757568 6.52926025 10.73265137 7.12102051 11.07788086 7.73071289 C12.0647995 9.47993784 13.03270808 11.23984584 14 13 C14.5465625 13.8765625 15.093125 14.753125 15.65625 15.65625 C17.91892586 19.32681307 19.04397884 21.16440205 18.8125 25.5625 C18.544375 26.366875 18.27625 27.17125 18 28 C17.319375 27.01 17.319375 27.01 16.625 26 C16.08875 25.34 15.5525 24.68 15 24 C14.34 24 13.68 24 13 24 C9.10036372 19.04501661 5.80145288 12.80690118 4.5 6.625 C4.335 6.08875 4.17 5.5525 4 5 C3.01 4.67 2.02 4.34 1 4 C0.3125 1.9375 0.3125 1.9375 0 0 Z " fill="#3F3F3F" transform="translate(227,217)"/>
<path d="M0 0 C0.66 0.33 1.32 0.66 2 1 C1.21625 1.66 0.4325 2.32 -0.375 3 C-3.20410777 6.23326602 -3.72649967 7.98155803 -4.55078125 12.02734375 C-5.74197323 17.25823028 -9.02494424 21.72923252 -11.9140625 26.16796875 C-13.15649769 28.11664777 -13.15649769 28.11664777 -14 31 C-14.66 31 -15.32 31 -16 31 C-16.495 33.475 -16.495 33.475 -17 36 C-17.66 36 -18.32 36 -19 36 C-19.99 38.475 -19.99 38.475 -21 41 C-21.66 40.01 -22.32 39.02 -23 38 C-22.67 37.34 -22.34 36.68 -22 36 C-21.34 36 -20.68 36 -20 36 C-19.85304688 35.12988281 -19.85304688 35.12988281 -19.703125 34.2421875 C-18.68422732 28.9193255 -17.19788623 25.45765959 -14 21 C-13.29851914 19.31006883 -12.5974398 17.61994755 -11.90625 15.92578125 C-9.02966535 9.81303886 -4.97083981 4.5322363 0 0 Z " fill="#9B9B9B" transform="translate(278,134)"/>
<path d="M0 0 C4.05283743 1.35094581 4.87056128 3.37995418 7 7 C7.75 9.375 7.75 9.375 8 11 C8.66 11 9.32 11 10 11 C13.44360058 13.66601336 14.6334641 16.39041442 16.01953125 20.44140625 C17.31773153 23.82914004 18.89048199 27.06505826 20.5 30.3125 C20.79688721 30.92335449 21.09377441 31.53420898 21.3996582 32.16357422 C22.95704634 35.27662534 24.51406966 37.59473407 27 40 C27.6875 43.1875 27.6875 43.1875 28 46 C28.66 46 29.32 46 30 46 C31.03041513 47.95330868 32.0490893 49.91281528 33.0625 51.875 C33.63097656 52.96554687 34.19945312 54.05609375 34.78515625 55.1796875 C35.18605469 56.11039062 35.58695313 57.04109375 36 58 C35.505 58.99 35.505 58.99 35 60 C27.9092956 48.26746301 20.92101021 36.48011292 14.03417969 24.62670898 C10.24623777 18.11359461 6.41453915 11.630303 2.48754883 5.19995117 C0 1.10369533 0 1.10369533 0 0 Z " fill="#121212" transform="translate(126,210)"/>
<path d="M0 0 C1.32 0 2.64 0 4 0 C4 0.66 4 1.32 4 2 C4.99 2 5.98 2 7 2 C7.28875 2.78375 7.5775 3.5675 7.875 4.375 C8.84912254 7.09671632 8.84912254 7.09671632 11 9 C11.34022786 10.99883869 11.67329097 12.99890722 12 15 C13.02416487 16.5362473 14.05810694 18.07188871 15.21875 19.5078125 C18.83714859 24.07493755 20.13039132 28.27615781 21 34 C20.34 34 19.68 34 19 34 C18.67 32.68 18.34 31.36 18 30 C17.34 30 16.68 30 16 30 C14.9923048 28.2335343 13.99408286 26.46166177 13 24.6875 C12.443125 23.70136719 11.88625 22.71523438 11.3125 21.69921875 C10 19 10 19 10 16 C9.34 16 8.68 16 8 16 C7.5875 14.948125 7.175 13.89625 6.75 12.8125 C5.30407234 9.39735658 3.33671488 6.88194835 1 4 C0.25 1.6875 0.25 1.6875 0 0 Z " fill="#343434" transform="translate(146,240)"/>
<path d="M0 0 C5.01937394 4.68111178 9.31390857 10.71032555 10.41796875 17.61328125 C10.44631719 21.07746024 10.10064578 23.69806267 9 27 C8.92979598 28.55975779 8.91566738 30.12240949 8.9375 31.68359375 C8.94587891 32.60640137 8.95425781 33.52920898 8.96289062 34.47998047 C8.97513672 35.45596191 8.98738281 36.43194336 9 37.4375 C9.05680158 45.36002929 8.93056756 53.1234103 8 61 C7.67 61 7.34 61 7 61 C7.02618408 59.85112305 7.05236816 58.70224609 7.0793457 57.51855469 C7.17074719 53.20235136 7.22757165 48.8862311 7.2746582 44.56933594 C7.29959967 42.71111605 7.33356585 40.85299219 7.37719727 38.99511719 C7.6298247 27.95084019 7.54154607 18.91232806 2 9 C0.24511304 5.75210522 -0.2069328 3.72479037 0 0 Z " fill="#4F4F4F" transform="translate(174,279)"/>
<path d="M0 0 C1.6705517 0.09672128 3.34112458 0.19307761 5.01171875 0.2890625 C9.0497348 0.52184893 13.08743489 0.75952408 17.125 1 C17.125 1.33 17.125 1.66 17.125 2 C1.44979149 2.22864972 -14.21252193 1.55473735 -29.875 1 C-29.38 1.61875 -28.885 2.2375 -28.375 2.875 C-26.875 5 -26.875 5 -26.875 7 C-29.44482095 7.95178554 -30.84588712 8.00609339 -33.5625 7.4375 C-35.875 6 -35.875 6 -36.6875 2.875 C-36.749375 1.92625 -36.81125 0.9775 -36.875 0 C-25.75903655 -3.37598408 -11.49894581 -0.68629799 0 0 Z " fill="#4B4B4B" transform="translate(206.875,119)"/>
<path d="M0 0 C0.66 0 1.32 0 2 0 C0.74800646 3.30966811 -0.65597754 6.29452138 -2.5 9.3125 C-3.02078125 10.1684375 -3.5415625 11.024375 -4.078125 11.90625 C-5.5577165 14.28803144 -7.04771404 16.66182278 -8.546875 19.03125 C-8.99224609 19.73725342 -9.43761719 20.44325684 -9.89648438 21.1706543 C-10.78439275 22.57570844 -11.67619472 23.97831121 -12.57226562 25.37817383 C-14.75741336 28.83218554 -16.64749868 32.11531565 -18 36 C-18.66 35.67 -19.32 35.34 -20 35 C-20.25532751 31.93606987 -20.21861333 30.36766788 -18.625 27.6875 C-18.08875 27.130625 -17.5525 26.57375 -17 26 C-16.34 26 -15.68 26 -15 26 C-14.731875 25.319375 -14.46375 24.63875 -14.1875 23.9375 C-12.83946694 20.60289191 -11.42463702 17.30256763 -10 14 C-9.34 14 -8.68 14 -8 14 C-7.67 12.68 -7.34 11.36 -7 10 C-6.01 10 -5.02 10 -4 10 C-3.79503906 9.36191406 -3.59007812 8.72382813 -3.37890625 8.06640625 C-3.10949219 7.24011719 -2.84007812 6.41382813 -2.5625 5.5625 C-2.29566406 4.73878906 -2.02882813 3.91507812 -1.75390625 3.06640625 C-1 1 -1 1 0 0 Z " fill="#8C8C8C" transform="translate(294,268)"/>
<path d="M0 0 C2 3 2 3 2 5 C2.66 5 3.32 5 4 5 C8.26223653 10.94099479 11.30700437 16.83049379 12.5625 24.0234375 C13.30879675 27.39509958 14.67797312 29.48970067 17 32 C20.6365731 32.97350778 20.6365731 32.97350778 24 33 C22.3125 34.125 22.3125 34.125 20 35 C16.150818 34.17654315 15.02877424 33.03866838 12.6484375 29.83984375 C11.87360765 28.54912676 11.11642759 27.2476896 10.375 25.9375 C9.97966064 25.25937256 9.58432129 24.58124512 9.17700195 23.88256836 C6.8000091 19.70776613 4.90613022 15.65153766 3.6171875 11.0078125 C2.52514 7.45520226 0.7293542 4.27980968 -1 1 C-0.67 0.67 -0.34 0.34 0 0 Z " fill="#1F1F1F" transform="translate(242,240)"/>
<path d="M0 0 C1.49739583 1.26953125 2.99479167 2.5390625 4.4921875 3.80859375 C6.00594079 5.0878152 6.00594079 5.0878152 8 6 C8 7.32 8 8.64 8 10 C8.99 10.33 9.98 10.66 11 11 C11 12.32 11 13.64 11 15 C11.66 15 12.32 15 13 15 C13.226875 16.134375 13.45375 17.26875 13.6875 18.4375 C14.74877589 22.81526305 16.71713414 26.30601408 19.07421875 30.1171875 C19.37972656 30.73851562 19.68523437 31.35984375 20 32 C19.67 32.66 19.34 33.32 19 34 C14.55076196 26.92001358 10.23968793 19.77976761 6.125 12.5 C5.7441626 11.83033203 5.3633252 11.16066406 4.97094727 10.47070312 C3.05266192 7.05161881 1.34973917 3.69402301 0 0 Z " fill="#212121" transform="translate(172,125)"/>
<path d="M0 0 C0.33 0.66 0.66 1.32 1 2 C0.07421875 3.953125 0.07421875 3.953125 -1.3125 6.25 C-3.35403515 9.76030628 -4.89149024 13.06982902 -6 17 C-6.66 17 -7.32 17 -8 17 C-8 18.98 -8 20.96 -8 23 C-8.66 23 -9.32 23 -10 23 C-10 23.66 -10 24.32 -10 25 C-10.66 25 -11.32 25 -12 25 C-12.103125 25.639375 -12.20625 26.27875 -12.3125 26.9375 C-12.539375 27.618125 -12.76625 28.29875 -13 29 C-13.99 29.33 -14.98 29.66 -16 30 C-15.4972657 24.6347536 -13.61937414 21.13622744 -10.8125 16.6875 C-10.40974854 16.03322021 -10.00699707 15.37894043 -9.59204102 14.70483398 C-6.51022799 9.72737117 -3.32844477 4.81645538 0 0 Z " fill="#6A6A6A" transform="translate(264,153)"/>
<path d="M0 0 C5.41069926 3.60713284 6.85068364 6.44497093 8.1640625 12.79296875 C8.79741276 15.1608109 8.79741276 15.1608109 10.9921875 16.171875 C11.98605469 16.58179688 11.98605469 16.58179688 13 17 C16.88815655 22.34621525 20.15027505 29.41463164 21 36 C17.97827938 33.35373879 16.25578632 30.22697815 14.27734375 26.7578125 C13.93119522 26.15242645 13.58504669 25.54704041 13.22840881 24.92330933 C12.49914621 23.64534874 11.7722605 22.36602922 11.04760742 21.08544922 C9.94342352 19.13546093 8.83074374 17.1905179 7.71679688 15.24609375 C1.79895687 4.85497521 1.79895687 4.85497521 0 0 Z " fill="#131313" transform="translate(91,149)"/>
<path d="M0 0 C0.66 0 1.32 0 2 0 C2 0.66 2 1.32 2 2 C2.94875 1.938125 3.8975 1.87625 4.875 1.8125 C5.90625 1.874375 6.9375 1.93625 8 2 C10 5 10 5 11 7 C10.62875 8.5159375 10.62875 8.5159375 10.25 10.0625 C9.93922282 14.95724064 11.37091088 17.06781708 13.96875 21.08203125 C14.3090625 21.71496094 14.649375 22.34789062 15 23 C14.67 23.66 14.34 24.32 14 25 C11.84950259 21.39859681 9.70540968 17.79342235 7.5625 14.1875 C6.95083984 13.16333984 6.33917969 12.13917969 5.70898438 11.08398438 C5.12568359 10.10107422 4.54238281 9.11816406 3.94140625 8.10546875 C3.40201416 7.19949951 2.86262207 6.29353027 2.30688477 5.36010742 C1 3 1 3 0 0 Z " fill="#3B3B3B" transform="translate(76,124)"/>
<path d="M0 0 C0.66 0.33 1.32 0.66 2 1 C-1.68515617 8.56147318 -5.35807696 15.96678328 -10 23 C-11.125 19.25 -11.125 19.25 -10 17 C-10 15.68 -10 14.36 -10 13 C-9.34 13 -8.68 13 -8 13 C-7.71125 11.865625 -7.4225 10.73125 -7.125 9.5625 C-6.75375 8.386875 -6.3825 7.21125 -6 6 C-5.34 5.67 -4.68 5.34 -4 5 C-3.855625 4.34 -3.71125 3.68 -3.5625 3 C-3.376875 2.34 -3.19125 1.68 -3 1 C-2.01 0.67 -1.02 0.34 0 0 Z " fill="#808080" transform="translate(307,245)"/>
<path d="M0 0 C0.66 0 1.32 0 2 0 C0.80290068 4.46191564 -0.96337804 7.50261123 -3.69140625 11.12109375 C-5.85537746 14.22816882 -7.38129512 17.58273415 -9 21 C-10.65 21 -12.3 21 -14 21 C-14 20.34 -14 19.68 -14 19 C-13.34 19 -12.68 19 -12 19 C-11.896875 18.236875 -11.79375 17.47375 -11.6875 16.6875 C-10.93772808 13.75657342 -10.16526733 12.98482838 -8 11 C-7.67 10.01 -7.34 9.02 -7 8 C-6.01 7.67 -5.02 7.34 -4 7 C-2.77554716 5.37051936 -2.77554716 5.37051936 -1.8125 3.4375 C-1.214375 2.303125 -0.61625 1.16875 0 0 Z " fill="#7F7F7F" transform="translate(241,196)"/>
<path d="M0 0 C0.87914062 0.00451172 1.75828125 0.00902344 2.6640625 0.01367188 C4.81773803 0.02537663 6.97137817 0.04330931 9.125 0.0625 C9.125 0.7225 9.125 1.3825 9.125 2.0625 C8.09729492 2.08437378 8.09729492 2.08437378 7.04882812 2.10668945 C3.90702026 2.18173432 0.76621008 2.2782069 -2.375 2.375 C-3.99148438 2.40883789 -3.99148438 2.40883789 -5.640625 2.44335938 C-12.08819829 2.65958897 -16.95325605 3.52946044 -22.875 6.0625 C-23.865 6.0625 -24.855 6.0625 -25.875 6.0625 C-26.205 7.0525 -26.535 8.0425 -26.875 9.0625 C-28.195 8.7325 -29.515 8.4025 -30.875 8.0625 C-21.52770237 1.11194535 -11.38464764 -0.1114461 0 0 Z " fill="#5D5D5D" transform="translate(310.875,124.9375)"/>
<path d="M0 0 C0.66 0 1.32 0 2 0 C2.66 0.99 3.32 1.98 4 3 C4.928125 3.1546875 4.928125 3.1546875 5.875 3.3125 C9.24726079 4.40352555 10.25127458 7.06463947 12 10 C11.67 10.66 11.34 11.32 11 12 C8.4375 12.625 8.4375 12.625 6 13 C4.99193149 11.40089132 3.99379615 9.79551738 3 8.1875 C2.443125 7.29417969 1.88625 6.40085938 1.3125 5.48046875 C0 3 0 3 0 0 Z " fill="#535353" transform="translate(185,143)"/>
<path d="M0 0 C0.66 0.33 1.32 0.66 2 1 C1.52949219 1.71285156 1.05898437 2.42570313 0.57421875 3.16015625 C-3.54878435 9.39670307 -3.54878435 9.39670307 -6.75 16.125 C-7.1625 17.07375 -7.575 18.0225 -8 19 C-8.99 19.33 -9.98 19.66 -11 20 C-11 19.01 -11 18.02 -11 17 C-10.34 17 -9.68 17 -9 17 C-8.896875 15.741875 -8.79375 14.48375 -8.6875 13.1875 C-8.35342189 10.49101243 -8.17022107 9.23682932 -6.5625 7 C-5 6 -5 6 -3 6 C-2.67 4.68 -2.34 3.36 -2 2 C-1.34 2 -0.68 2 0 2 C0 1.34 0 0.68 0 0 Z " fill="#ACACAC" transform="translate(254,176)"/>
<path d="M0 0 C0 3.41678823 -0.69458534 4.55105928 -2.40625 7.44921875 C-2.90253906 8.29677734 -3.39882813 9.14433594 -3.91015625 10.01757812 C-4.69712891 11.33918945 -4.69712891 11.33918945 -5.5 12.6875 C-6.02464844 13.58017578 -6.54929687 14.47285156 -7.08984375 15.39257812 C-8.38746759 17.59853865 -9.6910272 19.80076113 -11 22 C-12.04449911 18.86650268 -11.93423645 18.01031744 -11 15 C-11.66 14.67 -12.32 14.34 -13 14 C-12.01 13.67 -11.02 13.34 -10 13 C-9.67 12.34 -9.34 11.68 -9 11 C-8.01 11 -7.02 11 -6 11 C-5.938125 9.741875 -5.87625 8.48375 -5.8125 7.1875 C-5.5546875 4.98046875 -5.5546875 4.98046875 -5 3 C-2.4375 1 -2.4375 1 0 0 Z " fill="#666666" transform="translate(303,209)"/>
<path d="M0 0 C0.91330078 0.01353516 1.82660156 0.02707031 2.76757812 0.04101562 C4.99153259 0.07594685 7.21417952 0.12498414 9.4375 0.1875 C9.4375 0.5175 9.4375 0.8475 9.4375 1.1875 C7.58898437 1.19136719 7.58898437 1.19136719 5.703125 1.1953125 C-7.59868042 1.42676526 -17.60798049 3.78600935 -27.5625 13.1875 C-27.5625 11.5375 -27.5625 9.8875 -27.5625 8.1875 C-26.428125 7.73375 -25.29375 7.28 -24.125 6.8125 C-20.51528308 5.61654194 -20.51528308 5.61654194 -19.5625 3.1875 C-13.24356469 0.03758856 -6.9201121 -0.19800761 0 0 Z " fill="#747474" transform="translate(337.5625,184.8125)"/>
<path d="M0 0 C0.66 0 1.32 0 2 0 C3.18359375 1.57421875 3.18359375 1.57421875 4.4375 3.6875 C5.09105469 4.78191406 5.09105469 4.78191406 5.7578125 5.8984375 C6.16773438 6.59195313 6.57765625 7.28546875 7 8 C7.598125 8.928125 8.19625 9.85625 8.8125 10.8125 C10 13 10 13 10 16 C10.66 16 11.32 16 12 16 C13.03041513 17.95330868 14.0490893 19.91281528 15.0625 21.875 C15.91521484 23.51082031 15.91521484 23.51082031 16.78515625 25.1796875 C17.18605469 26.11039062 17.58695313 27.04109375 18 28 C17.67 28.66 17.34 29.32 17 30 C15.0977783 26.87884808 13.2044561 23.75238347 11.3125 20.625 C10.78205078 19.75488281 10.25160156 18.88476562 9.70507812 17.98828125 C6.16603338 12.12605989 2.96624818 6.17172332 0 0 Z " fill="#0D0D0D" transform="translate(144,240)"/>
<path d="M0 0 C-0.66 2.31 -1.32 4.62 -2 7 C-2.66 7 -3.32 7 -4 7 C-4.33 8.65 -4.66 10.3 -5 12 C-5.66 12 -6.32 12 -7 12 C-7.66 13.65 -8.32 15.3 -9 17 C-9.66 16.01 -10.32 15.02 -11 14 C-10.67 13.34 -10.34 12.68 -10 12 C-9.34 12 -8.68 12 -8 12 C-7.90203125 11.38511719 -7.8040625 10.77023438 -7.703125 10.13671875 C-6.47302291 3.48780488 -6.47302291 3.48780488 -4 0.9375 C-2 0 -2 0 0 0 Z " fill="#B0B0B0" transform="translate(266,158)"/>
<path d="M0 0 C0.66 0 1.32 0 2 0 C2.45375 1.134375 2.9075 2.26875 3.375 3.4375 C4.57095806 7.04721692 4.57095806 7.04721692 7 8 C7 9.65 7 11.3 7 13 C9.16874252 12.49396008 10.99967627 12.00016187 13 11 C12.34 12.65 11.68 14.3 11 16 C8.69 16 6.38 16 4 16 C3.87882812 15.26394531 3.75765625 14.52789062 3.6328125 13.76953125 C3.46523438 12.79371094 3.29765625 11.81789063 3.125 10.8125 C2.96257812 9.84957031 2.80015625 8.88664062 2.6328125 7.89453125 C2.01960483 5.08967396 1.14333657 2.62775253 0 0 Z " fill="#636363" transform="translate(256,257)"/>
<path d="M0 0 C2 2.5 2 2.5 4 5 C4.763125 5.845625 5.52625 6.69125 6.3125 7.5625 C8 10 8 10 7.75 12.3125 C7.5025 12.869375 7.255 13.42625 7 14 C6.67 13.01 6.34 12.02 6 11 C5.01 11.495 5.01 11.495 4 12 C4.33 12.99 4.66 13.98 5 15 C4.01 15 3.02 15 2 15 C-0.59227518 10.13948404 -0.18689553 5.34728867 0 0 Z " fill="#636363" transform="translate(198,157)"/>
<path d="M0 0 C3.40035253 2.20914623 4.87511538 4.2106466 6.5625 7.875 C7.89087382 10.68754456 9.2014828 13.33348877 10.8125 16 C12 18 12 18 12 20 C11.34 20 10.68 20 10 20 C8.61061923 18.03852126 7.2739589 16.03833424 6 14 C5.01 14.495 5.01 14.495 4 15 C2 7 2 7 1.55859375 4.859375 C1.09317322 2.77733293 1.09317322 2.77733293 -1 1 C-0.67 0.67 -0.34 0.34 0 0 Z " fill="#4F4F4F" transform="translate(154,245)"/>
<path d="M0 0 C3.44423553 1.14807851 3.67318434 1.59858872 5.25 4.6875 C7.04804786 8.46748698 7.22776314 10.90745621 6 15 C2.12205672 11.7683806 1.04839982 8.89253251 0 4 C0 2.68 0 1.36 0 0 Z " fill="#444444" transform="translate(165,265)"/>
<path d="M0 0 C3.87641915 4.32369829 10 11.95808443 10 18 C9.34 18 8.68 18 8 18 C8 17.34 8 16.68 8 16 C7.34 16 6.68 16 6 16 C3.95830515 13.09451118 3 11.59857954 3 8 C2.34 8 1.68 8 1 8 C-1.125 3.375 -1.125 3.375 0 0 Z " fill="#505050" transform="translate(236,223)"/>
<path d="M0 0 C0.66 1.32 1.32 2.64 2 4 C2.66 4 3.32 4 4 4 C7 9.75 7 9.75 7 12 C7.66 12 8.32 12 9 12 C9 12.66 9 13.32 9 14 C9.66 14 10.32 14 11 14 C10.34 15.32 9.68 16.64 9 18 C8.34 16.68 7.68 15.36 7 14 C6.34 14 5.68 14 5 14 C2.02264918 10.44522357 0.10134974 7.13511711 -0.3125 2.5 C-0.209375 1.675 -0.10625 0.85 0 0 Z " fill="#343434" transform="translate(235,227)"/>
<path d="M0 0 C1.96301592 3.50538557 2.95902388 7.13351728 4 11 C6.97 11.495 6.97 11.495 10 12 C7 14 7 14 4.625 14.0625 C0.83812161 12.52971589 -1.3049932 9.69672911 -3 6 C-2.67 5.01 -2.34 4.02 -2 3 C-1.34 3.33 -0.68 3.66 0 4 C0 2.68 0 1.36 0 0 Z " fill="#1E1E1E" transform="translate(208,179)"/>
<path d="M0 0 C3.66418314 2.44278876 5.01977579 5.20239897 7 9 C7.53625 10.00933594 8.0725 11.01867187 8.625 12.05859375 C11.92046936 18.41305203 11.92046936 18.41305203 13 21 C12.67 21.66 12.34 22.32 12 23 C9.98925441 19.73565792 7.99329608 16.46252137 6 13.1875 C5.42765625 12.25873047 4.8553125 11.32996094 4.265625 10.37304688 C3.72421875 9.48037109 3.1828125 8.58769531 2.625 7.66796875 C2.12226563 6.84578857 1.61953125 6.0236084 1.1015625 5.17651367 C0 3 0 3 0 0 Z " fill="#191919" transform="translate(192,159)"/>
<path d="M0 0 C3.0916909 2.52956528 3.90931332 5.22454612 5 9 C3.68 9 2.36 9 1 9 C0.67 9.66 0.34 10.32 0 11 C-2 8 -2 8 -1.6875 4.375 C-1 1 -1 1 0 0 Z " fill="#565656" transform="translate(87,130)"/>
<path d="M0 0 C0.33 1.32 0.66 2.64 1 4 C0.01 4.33 -0.98 4.66 -2 5 C-2.144375 5.78375 -2.28875 6.5675 -2.4375 7.375 C-3 10 -3 10 -4 12 C-4.66 12 -5.32 12 -6 12 C-6.2475 12.928125 -6.495 13.85625 -6.75 14.8125 C-8.06454245 18.16458325 -8.97963384 19.1877803 -12 21 C-10.32508169 16.11963459 -7.63208039 12.00847052 -4.875 7.6875 C-4.40707031 6.94693359 -3.93914062 6.20636719 -3.45703125 5.44335938 C-2.30835804 3.62658032 -1.15467631 1.81296963 0 0 Z " fill="#242424" transform="translate(303,246)"/>
<path d="M0 0 C0.33 1.32 0.66 2.64 1 4 C0.34 4 -0.32 4 -1 4 C0.11028722 7.84330191 0.97831209 10.35602308 4 13 C4.99 14.485 4.99 14.485 6 16 C5.67 16.99 5.34 17.98 5 19 C1.15110084 15.70094358 -1.47224111 11.83309889 -3 7 C-2.3125 4.125 -2.3125 4.125 -1 2 C-0.67 1.34 -0.34 0.68 0 0 Z " fill="#171717" transform="translate(228,211)"/>
<path d="M0 0 C2.64 0 5.28 0 8 0 C9.06775224 1.96466413 10.06553465 3.96855359 11 6 C10 8 10 8 8 9 C7.67 7.68 7.34 6.36 7 5 C5.35 4.67 3.7 4.34 2 4 C2 3.34 2 2.68 2 2 C1.34 2 0.68 2 0 2 C0 1.34 0 0.68 0 0 Z " fill="#595959" transform="translate(76,122)"/>
<path d="M0 0 C0.99 0 1.98 0 3 0 C4.91302307 3.26613695 5.35674661 5.99445248 5.625 9.75 C5.69976562 10.73484375 5.77453125 11.7196875 5.8515625 12.734375 C5.92503906 13.85585937 5.92503906 13.85585937 6 15 C3.62317631 12.86285601 2.40068998 11.06221946 1.3125 8.0625 C1.06113281 7.39347656 0.80976563 6.72445312 0.55078125 6.03515625 C0 4 0 4 0 0 Z " fill="#3D3D3D" transform="translate(201,168)"/>
<path d="M0 0 C0.33 0.66 0.66 1.32 1 2 C0.07421875 3.953125 0.07421875 3.953125 -1.3125 6.25 C-2.97410022 9.08019818 -4.0998877 11.32904182 -5.0625 14.5 C-5.5265625 15.7375 -5.5265625 15.7375 -6 17 C-8.125 17.875 -8.125 17.875 -10 18 C-8.5216233 13.98832453 -6.60821705 10.42979591 -4.4375 6.75 C-3.81746094 5.69296875 -3.19742187 4.6359375 -2.55859375 3.546875 C-1 1 -1 1 0 0 Z " fill="#3B3B3B" transform="translate(264,153)"/>
<path d="M0 0 C0.66 0.33 1.32 0.66 2 1 C1.21625 1.66 0.4325 2.32 -0.375 3 C-3.1942781 6.22203211 -3.73434124 7.95791185 -4.53125 11.99609375 C-5.21308288 14.91092932 -6.56509223 17.39107678 -8 20 C-9.78334701 16.43330598 -8.05738982 12.71611369 -7.1015625 9 C-5.53918454 4.74501323 -3.50318009 2.80254407 0 0 Z " fill="#9D9D9D" transform="translate(278,134)"/>
<path d="M0 0 C5.96385727 1.98795242 8.40345243 9.52281116 11.14453125 14.828125 C11.56798828 15.90320313 11.56798828 15.90320313 12 17 C11.67 17.66 11.34 18.32 11 19 C9.72593712 16.96028888 8.45570798 14.91834736 7.1875 12.875 C6.83107422 12.30523437 6.47464844 11.73546875 6.10742188 11.1484375 C3.86064801 7.52061915 1.85175281 3.84370141 0 0 Z " fill="#0B0B0B" transform="translate(126,210)"/>
<path d="M0 0 C2.475 0.495 2.475 0.495 5 1 C5 1.99 5 2.98 5 4 C5.66 4.33 6.32 4.66 7 5 C6.67 6.65 6.34 8.3 6 10 C3 9 3 9 1.3125 6.125 C0 3 0 3 0 0 Z " fill="#3E3E3E" transform="translate(97,155)"/>
<path d="M0 0 C0.87840996 3.09720845 0.99435406 4.90645403 0 8 C-0.61875 8.061875 -1.2375 8.12375 -1.875 8.1875 C-4.2501999 8.80875315 -4.2501999 8.80875315 -5.0625 11.375 C-5.371875 12.24125 -5.68125 13.1075 -6 14 C-7.625 15.8125 -7.625 15.8125 -9 17 C-7.51481201 12.95698825 -5.57122002 9.38853744 -3.375 5.6875 C-2.74335938 4.61886719 -2.11171875 3.55023438 -1.4609375 2.44921875 C-0.97882813 1.64097656 -0.49671875 0.83273437 0 0 Z " fill="#242424" transform="translate(290,267)"/>
<path d="M0 0 C0.2475 0.639375 0.495 1.27875 0.75 1.9375 C1.81562433 4.18741541 1.81562433 4.18741541 4.125 4.75 C4.74375 4.8325 5.3625 4.915 6 5 C6 7.64 6 10.28 6 13 C2.70032335 10.19527484 0.91540896 6.83081791 -1 3 C-0.67 2.01 -0.34 1.02 0 0 Z " fill="#363636" transform="translate(254,260)"/>
<path d="M0 0 C2.63978826 3.18595135 5.10498388 6.30970546 7 10 C6.67 10.66 6.34 11.32 6 12 C2.15443885 10.71814628 1.57931973 9.21420223 -0.28125 5.7890625 C-1 4 -1 4 -0.75 1.5625 C-0.5025 1.046875 -0.255 0.53125 0 0 Z " fill="#4A4A4A" transform="translate(246,241)"/>
<path d="M0 0 C3.96 0 7.92 0 12 0 C13 4 13 4 12.00390625 6.140625 C11.52824219 6.83671875 11.05257813 7.5328125 10.5625 8.25 C10.08941406 8.95640625 9.61632812 9.6628125 9.12890625 10.390625 C8.75636719 10.92171875 8.38382813 11.4528125 8 12 C7.67 11.34 7.34 10.68 7 10 C8.11463924 7.21060129 9.58628534 4.65606996 11 2 C7.37 1.67 3.74 1.34 0 1 C0 0.67 0 0.34 0 0 Z " fill="#626262" transform="translate(245,122)"/>
<path d="M0 0 C0.64453125 1.81640625 0.64453125 1.81640625 1 4 C-0.19932091 5.52346169 -1.40908652 7.04294029 -2.71875 8.47265625 C-4.38955859 10.46438235 -5.20496137 12.54260788 -6 15 C-6.66 15 -7.32 15 -8 15 C-6.51194289 9.19657726 -3.40902445 4.82409121 0 0 Z " fill="#2F2F2F" transform="translate(312,231)"/>
<path d="M0 0 C2 0 2 0 3.5 1.25 C5.1159578 3.1352841 6.15022818 4.66312749 7 7 C6.625 9.25 6.625 9.25 6 11 C6 10.34 6 9.68 6 9 C4.68 8.67 3.36 8.34 2 8 C1.34 5.36 0.68 2.72 0 0 Z " fill="#262626" transform="translate(111,181)"/>
<path d="M0 0 C0.66 0 1.32 0 2 0 C0.00679515 5.61721366 -2.7543927 11.7543927 -7 16 C-6.56688677 10.36952802 -4.07551604 4.07551604 0 0 Z " fill="#A0A0A0" transform="translate(321,222)"/>
<path d="M0 0 C5.43637979 4.47701865 8.44570786 10.49903842 11 17 C10.67 17.66 10.34 18.32 10 19 C8.32626249 16.21251481 6.66223733 13.41935573 5 10.625 C4.28457031 9.43390625 4.28457031 9.43390625 3.5546875 8.21875 C3.10351562 7.45820313 2.65234375 6.69765625 2.1875 5.9140625 C1.76855469 5.2123291 1.34960938 4.5105957 0.91796875 3.78759766 C0 2 0 2 0 0 Z " fill="#161616" transform="translate(80,130)"/>
<path d="M0 0 C-4.62204909 2.50360992 -9.69950655 5 -15 5 C-15.33 5.99 -15.66 6.98 -16 8 C-17.32 7.67 -18.64 7.34 -20 7 C-14.18671619 2.67730178 -7.44671666 -0.72065 0 0 Z " fill="#494949" transform="translate(300,126)"/>
<path d="M0 0 C0.66 0.33 1.32 0.66 2 1 C-0.31 4.96 -2.62 8.92 -5 13 C-6.07349791 8.70600835 -5.79682816 7.80504787 -4 4 C-3.34 4 -2.68 4 -2 4 C-1.34 2.68 -0.68 1.36 0 0 Z " fill="#8E8E8E" transform="translate(302,255)"/>
<path d="M0 0 C3.22269618 3.79817765 5.74520378 7.57391854 8 12 C7.67 12.66 7.34 13.32 7 14 C4 13 4 13 2.375 9.8125 C1.10258101 6.58815031 0.42058494 3.44879647 0 0 Z " fill="#575757" transform="translate(228,254)"/>
<path d="M0 0 C0.66 0 1.32 0 2 0 C0.58795406 5.26308032 -1.68991307 8.7562988 -5 13 C-5.33 13 -5.66 13 -6 13 C-6.3125 10.8125 -6.3125 10.8125 -6 8 C-3.5625 5.375 -3.5625 5.375 -1 3 C-0.67 2.01 -0.34 1.02 0 0 Z " fill="#9E9E9E" transform="translate(241,196)"/>
<path d="M0 0 C0.625 1.8125 0.625 1.8125 1 4 C0.01 5.485 0.01 5.485 -1 7 C-1.66 7 -2.32 7 -3 7 C-3.309375 7.94875 -3.61875 8.8975 -3.9375 9.875 C-5 13 -5 13 -6 15 C-6.66 15 -7.32 15 -8 15 C-6.51194289 9.19657726 -3.40902445 4.82409121 0 0 Z " fill="#282828" transform="translate(243,187)"/>
<path d="M0 0 C0.66 0.33 1.32 0.66 2 1 C1.55011719 1.40863281 1.10023438 1.81726563 0.63671875 2.23828125 C-1.1165583 4.12546013 -2.08482329 5.86807658 -3.1875 8.1875 C-3.53167969 8.90292969 -3.87585938 9.61835938 -4.23046875 10.35546875 C-4.48441406 10.89816406 -4.73835938 11.44085938 -5 12 C-5.66 11.01 -6.32 10.02 -7 9 C-5.03681826 5.46627288 -2.95929119 2.75520215 0 0 Z " fill="#E4E4E4" transform="translate(280,134)"/>
<path d="M0 0 C0.66 0 1.32 0 2 0 C1.39009109 3.55780196 0.4216319 6.6828589 -1 10 C-1.66 9.67 -2.32 9.34 -3 9 C-3.25532751 5.93606987 -3.21861333 4.36766788 -1.625 1.6875 C-0.820625 0.8521875 -0.820625 0.8521875 0 0 Z " fill="#858585" transform="translate(277,294)"/>
<path d="M0 0 C0.66 0 1.32 0 2 0 C0.14285714 8.71428571 0.14285714 8.71428571 -3 11 C-2.67 8.69 -2.34 6.38 -2 4 C-2.66 3.67 -3.32 3.34 -4 3 C-3.01 2.67 -2.02 2.34 -1 2 C-0.67 1.34 -0.34 0.68 0 0 Z " fill="#898989" transform="translate(294,220)"/>
<path d="M0 0 C3.09592835 3.5087188 4.74194623 6.49197399 6 11 C5.34 11 4.68 11 4 11 C1.63496961 8.00893216 0.08446819 5.97138418 -0.25 2.125 C-0.1675 1.42375 -0.085 0.7225 0 0 Z " fill="#5B5B5B" transform="translate(160,254)"/>
<path d="M0 0 C1.32 1.65 2.64 3.3 4 5 C3.34 6.32 2.68 7.64 2 9 C1.34 8.67 0.68 8.34 0 8 C-0.95067299 4.71585695 -1.10102197 3.30306592 0 0 Z " fill="#505050" transform="translate(138,217)"/>
<path d="M0 0 C1.6415049 3.2830098 0.51888624 6.42545033 0 10 C-1.32 9.67 -2.64 9.34 -4 9 C-3.35455571 5.51460083 -1.89865603 2.97180943 0 0 Z " fill="#CFCFCF" transform="translate(236,208)"/>
<path d="M0 0 C1.49739583 1.26953125 2.99479167 2.5390625 4.4921875 3.80859375 C6.00594079 5.0878152 6.00594079 5.0878152 8 6 C8 7.65 8 9.3 8 11 C4.38061905 8.35883012 2.01293477 6.02586954 0 2 C0 1.34 0 0.68 0 0 Z " fill="#2B2B2B" transform="translate(172,125)"/>
<path d="M0 0 C3.72311198 2.48207465 5.41287799 5.02513507 6.6875 9.3125 C6.790625 9.869375 6.89375 10.42625 7 11 C1.21538462 6.81538462 1.21538462 6.81538462 0.125 2.6875 C0.08375 1.800625 0.0425 0.91375 0 0 Z " fill="#242424" transform="translate(101,164)"/>
<path d="M0 0 C1.27351308 2.54702616 0.80191925 3.4282945 0.0625 6.125 C-0.13214844 6.84945312 -0.32679688 7.57390625 -0.52734375 8.3203125 C-0.68332031 8.87460938 -0.83929688 9.42890625 -1 10 C-1.66 10 -2.32 10 -3 10 C-3.36923077 4.58461538 -3.36923077 4.58461538 -1.5 1.625 C-1.005 1.08875 -0.51 0.5525 0 0 Z " fill="#848484" transform="translate(271,142)"/>
<path d="M0 0 C0.66 0 1.32 0 2 0 C0.55049545 3.7910119 -1.15172566 7.3874638 -3 11 C-4.3968009 6.80959731 -2.86445675 4.87233324 -1 1 C-0.67 0.67 -0.34 0.34 0 0 Z " fill="#909090" transform="translate(294,268)"/>
<path d="M0 0 C2.4375 1.5625 2.4375 1.5625 5 4 C5.8125 7.75 5.8125 7.75 6 11 C0 3.6 0 3.6 0 0 Z " fill="#2B2B2B" transform="translate(135,221)"/>
<path d="M0 0 C0.99 0 1.98 0 3 0 C3 2.64 3 5.28 3 8 C2.34 7.67 1.68 7.34 1 7 C1 6.34 1 5.68 1 5 C0.34 5 -0.32 5 -1 5 C-0.67 3.35 -0.34 1.7 0 0 Z " fill="#3B3B3B" transform="translate(135,216)"/>
<path d="M0 0 C0.66 0 1.32 0 2 0 C4.95303159 3.07115285 5.52651586 5.8333396 6 10 C2.51668565 6.98112756 1.20842856 4.43090471 0 0 Z " fill="#131313" transform="translate(115,190)"/>
<path d="M0 0 C0.66 0 1.32 0 2 0 C1.34 2.31 0.68 4.62 0 7 C-0.66 7 -1.32 7 -2 7 C-2.33 8.65 -2.66 10.3 -3 12 C-4 9 -4 9 -3 6 C-2.34 6 -1.68 6 -1 6 C-1.020625 5.195625 -1.04125 4.39125 -1.0625 3.5625 C-1 1 -1 1 0 0 Z " fill="#CDCDCD" transform="translate(264,158)"/>
<path d="M0 0 C2.67576692 1.00617682 3.7785108 1.54214546 5.046875 4.1640625 C5.27890625 4.97617188 5.5109375 5.78828125 5.75 6.625 C5.99234375 7.44226563 6.2346875 8.25953125 6.484375 9.1015625 C6.73960937 10.04128906 6.73960937 10.04128906 7 11 C4.59424393 8.81482901 3.20464419 6.74080329 1.8125 3.8125 C1.46832031 3.09707031 1.12414062 2.38164062 0.76953125 1.64453125 C0.51558594 1.10183594 0.26164063 0.55914062 0 0 Z " fill="#101010" transform="translate(198,171)"/>
<path d="M0 0 C1.32 0 2.64 0 4 0 C4 2.31 4 4.62 4 7 C1.49962266 4.82575883 0.56371414 3.26954202 0 0 Z " fill="#2F2F2F" transform="translate(146,240)"/>
<path d="M0 0 C0.33 0.66 0.66 1.32 1 2 C-0.25 5.0625 -0.25 5.0625 -2 8 C-2.99 8.33 -3.98 8.66 -5 9 C-3.7508258 5.54074837 -2.32472205 2.85306797 0 0 Z " fill="#252525" transform="translate(234,202)"/>
<path d="M0 0 C0.66 0 1.32 0 2 0 C1.40312566 3.34249629 0.26396123 5.46436342 -2 8 C-2.66 8 -3.32 8 -4 8 C-4 7.34 -4 6.68 -4 6 C-3.34 6 -2.68 6 -2 6 C-1.34 4.02 -0.68 2.04 0 0 Z " fill="#7B7B7B" transform="translate(239,196)"/>
<path d="M0 0 C0.99 0 1.98 0 3 0 C2.34 1.65 1.68 3.3 1 5 C0.01 5 -0.98 5 -2 5 C-2.33 5.66 -2.66 6.32 -3 7 C-3 6.01 -3 5.02 -3 4 C-2.34 4 -1.68 4 -1 4 C-0.67 2.68 -0.34 1.36 0 0 Z " fill="#868686" transform="translate(287,278)"/>
</svg>
